<svg width="35" height="35" viewBox="0 0 35 35" fill="none" xmlns="http://www.w3.org/2000/svg">
<path d="M35 17.5126C35.0124 7.8857 27.189 0.0250077 17.5373 0.000132085C7.89802 -0.0371813 0.0124526 7.83595 1.47865e-05 17.4877C-0.012423 27.1145 7.82339 34.9752 17.4627 35.0001C27.0895 35.025 34.9875 27.1643 35 17.5126Z" fill="#084CBB"/>
<path d="M35 17.5127C34.9875 27.1645 27.102 35.0376 17.4627 35.0003C7.81095 34.963 -0.012423 27.1147 1.48099e-05 17.4879C0.0124526 7.83612 7.89802 -0.0245726 17.5373 0.000303018C27.1766 0.0251786 35.0124 7.88587 35 17.5127ZM17.5 26.2192C19.5771 26.2192 21.6418 26.2192 23.7189 26.2192C24.3657 26.2192 24.6517 25.9331 24.6393 25.2988C24.6393 24.9008 24.6269 24.4903 24.5771 24.0923C24.1418 20.0127 20.1244 17.0774 16.1194 17.9232C12.6368 18.657 10.3358 21.5426 10.3483 25.1868C10.3483 25.958 10.597 26.2192 11.3682 26.2192C13.408 26.2192 15.4478 26.2192 17.5 26.2192ZM17.4627 16.3436C19.8632 16.356 21.8283 14.4157 21.8408 12.0277C21.8532 9.6396 19.9005 7.67443 17.5 7.67443C15.1119 7.66199 13.1592 9.58985 13.1468 11.9779C13.1219 14.3535 15.0622 16.3311 17.4627 16.3436Z" fill="#084CBB"/>
<path d="M17.5 26.219C15.4478 26.219 13.408 26.219 11.3558 26.219C10.5971 26.219 10.3359 25.9579 10.3359 25.1867C10.3234 21.5424 12.6244 18.6444 16.107 17.923C20.1244 17.0773 24.1418 20.0126 24.5647 24.0922C24.602 24.4902 24.6269 24.8882 24.6269 25.2986C24.6269 25.933 24.3408 26.219 23.7065 26.219C21.6418 26.2315 19.5771 26.219 17.5 26.219Z" fill="white"/>
<path d="M17.4626 16.3434C15.0621 16.331 13.1218 14.3534 13.1467 11.9653C13.1716 9.58972 15.1243 7.66187 17.5 7.66187C19.9004 7.6743 21.8532 9.62704 21.8407 12.0151C21.8283 14.4156 19.8631 16.3559 17.4626 16.3434Z" fill="white"/>
</svg>
