<svg width="33" height="35" viewBox="0 0 33 35" fill="none" xmlns="http://www.w3.org/2000/svg">
<path d="M14.7901 10.8856C15.3466 11.9854 15.2538 12.8732 14.5118 13.496C13.8758 14.026 12.8688 14.0922 12.2592 13.5357C11.9545 13.2575 11.716 12.8732 11.5835 12.4889C11.3715 11.8662 11.6232 11.2831 12.0472 10.7796C11.1859 10.3026 10.8017 9.77258 10.5632 8.73904C10.1657 6.97673 9.76815 5.21441 9.38388 3.45209C9.23813 2.78957 9.33088 2.67031 10.0199 2.67031C13.9818 2.67031 17.9437 2.67031 21.9056 2.67031C22.1971 2.67031 22.3429 2.59081 22.4489 2.31255C22.7801 1.43802 23.3499 0.722491 24.2774 0.470731C25.1387 0.232222 26.0265 0.152719 26.9143 0.00696374C27.1661 -0.0327878 27.3251 0.0997171 27.3383 0.351477C27.3516 0.616487 27.1926 0.748991 26.9275 0.762242C26.6625 0.775492 26.4108 0.815244 26.1458 0.828494C24.0654 0.9875 23.3499 1.57052 22.8199 3.5846C22.3826 5.25416 21.9851 6.92372 21.5876 8.60654C21.3888 9.42807 21.0841 10.1833 20.3155 10.6471C21.0841 11.7734 21.0973 12.6479 20.3685 13.3767C19.759 13.9862 18.7255 14.1055 18.063 13.5622C17.7449 13.2972 17.4932 12.8864 17.3342 12.5022C17.1222 11.9457 17.3209 11.4024 17.6919 10.8856C16.6849 10.8856 15.7441 10.8856 14.7901 10.8856ZM11.9015 28.5883C12.0605 28.5353 12.193 28.4823 12.3255 28.4293C12.8423 28.204 13.359 27.9788 13.8626 27.7403C14.2336 27.5548 14.4721 27.2765 14.4191 26.826C14.3661 26.3622 14.1011 26.0707 13.6638 25.9382C13.253 25.8189 12.829 25.7527 12.4182 25.6202C12.193 25.5539 11.981 25.4214 11.7557 25.3022C11.4907 25.1564 11.239 24.9444 10.9474 24.8649C10.4439 24.7324 9.9139 24.6926 9.39713 24.5999C9.13212 24.5601 8.97312 24.4011 8.95987 24.1361C8.92011 23.3146 8.78761 22.4798 8.86711 21.6715C9.07912 19.6045 10.0729 17.9614 11.6895 16.6761C11.928 17.1531 12.1002 17.6301 12.3785 18.0541C13.1205 19.1804 13.306 20.3995 13.0145 21.698C12.882 22.3076 12.723 22.9038 12.6568 23.5266C12.5905 24.0699 12.988 24.4806 13.518 24.5469C13.9686 24.5999 14.3131 24.3614 14.5251 24.0169C14.8828 23.4471 15.2671 22.8641 15.4526 22.2281C15.7574 21.2078 16.4464 20.7307 17.4004 20.479C17.8907 20.3465 18.381 20.2007 18.8447 19.9887C19.494 19.6972 19.706 19.1937 19.5603 18.4914C19.441 17.8951 19.0435 17.4976 18.5797 17.1531C18.2882 16.9279 18.275 16.7158 18.5665 16.4906C18.7917 16.3183 19.017 16.1328 19.2688 15.9738C19.3483 15.9208 19.494 15.8943 19.5603 15.9341C20.5276 16.4111 21.3491 17.0604 22.0116 17.9084C21.5611 18.4517 21.3226 19.0479 21.2563 19.7105C21.2033 20.1477 21.1901 20.585 21.1768 21.0355C21.1238 22.7183 20.5275 24.0434 18.8182 24.6529C18.699 24.6926 18.593 24.7589 18.487 24.8251C18.0365 25.0902 17.8907 25.3949 18.1425 25.8587C18.3545 26.243 18.6327 26.6405 18.9905 26.879C19.9445 27.5282 20.9516 27.409 21.9189 26.8392C22.1706 26.6935 22.4091 26.508 22.6874 26.3092C20.8721 30.0061 15.4129 31.3841 11.9015 28.5883ZM4.57395 9.82558C4.49444 9.94484 4.42819 10.0376 4.36194 10.1303C1.61909 14.1187 0.903559 18.4517 2.34786 23.0628C5.18347 32.1262 15.9429 36.1013 23.9727 31.0396C28.3718 28.2703 30.6642 24.1891 30.8894 18.9949C30.9822 16.7556 30.5052 14.609 29.5776 12.5684C29.3921 12.1709 29.2066 12.1179 28.8356 12.3697C28.5441 12.5552 28.2658 12.7672 27.9213 12.9925C27.6961 11.3891 27.4973 9.87859 27.2853 8.31503C28.7694 9.03055 30.2137 9.70633 31.6977 10.4219C31.3797 10.6339 31.1412 10.8326 30.8629 10.9916C30.4919 11.2036 30.4389 11.4686 30.6244 11.8529C32.029 14.821 32.453 17.9216 31.9495 21.168C30.5979 29.9266 22.0514 35.9291 13.3193 34.233C2.58637 32.1659 -2.89933 20.1875 2.54662 10.7001C2.86463 10.1436 3.23565 9.61358 3.60666 9.05706C3.80542 9.20281 3.93793 9.30882 4.08368 9.42807C4.22944 9.54732 4.38844 9.67983 4.57395 9.82558ZM18.5135 15.4703C18.2617 15.7486 18.0365 15.9871 17.8244 16.2388C17.4667 16.6893 17.4932 17.0736 17.8907 17.4976C18.0365 17.6566 18.222 17.7891 18.381 17.9481C19.123 18.6372 19.017 19.1937 18.0497 19.4852C17.5197 19.6442 16.9897 19.79 16.4729 19.9887C15.6911 20.2802 15.1611 20.8102 14.8961 21.6318C14.7503 22.0823 14.5383 22.5328 14.3396 22.9568C14.2336 23.1821 14.0878 23.3808 13.9156 23.5531C13.8228 23.6459 13.6505 23.6459 13.518 23.6856C13.4915 23.5531 13.4385 23.4206 13.465 23.3146C13.5313 22.9436 13.6373 22.5858 13.73 22.2281C14.1541 20.5717 14.0083 19.0082 13.0145 17.5639C12.8688 17.3519 12.7628 17.1001 12.67 16.8616C12.4182 16.1991 12.4447 16.1461 13.094 15.8413C13.2 15.7883 13.3193 15.7353 13.4385 15.6956C15.1081 15.0198 16.8042 14.9535 18.5135 15.4703ZM22.4886 18.5577C22.5416 18.5974 22.5814 18.6239 22.5946 18.6504C23.7474 20.5452 24.0124 22.5593 23.4294 24.6926C23.4029 24.7854 23.3367 24.9047 23.2572 24.9577C22.6741 25.3684 22.0911 25.7924 21.4816 26.1635C20.7793 26.5875 20.0373 26.6405 19.335 26.1635C18.7255 25.7527 18.7652 25.4877 19.4145 25.1829C19.5073 25.1432 19.5868 25.1034 19.6795 25.0637C20.6998 24.6131 21.4153 23.8579 21.6671 22.7713C21.8526 22.0028 21.8924 21.1945 21.9719 20.3995C22.0381 19.7635 22.0911 19.1274 22.4886 18.5577ZM9.35738 25.4082C9.8874 25.4612 10.3512 25.5009 10.8149 25.5539C10.8944 25.5672 11.0137 25.5937 11.0534 25.6599C11.3847 26.1369 11.875 26.2695 12.405 26.3755C12.723 26.4417 13.0543 26.5212 13.359 26.6405C13.465 26.6802 13.5843 26.8392 13.5843 26.9452C13.5843 27.038 13.4385 27.1705 13.3325 27.2102C12.67 27.462 11.9942 27.7005 11.3052 27.9258C11.2125 27.9523 11.0402 27.9258 10.9739 27.8595C10.2849 27.1572 9.7549 26.349 9.35738 25.4082Z" fill="white"/>
<path d="M14.7901 10.8856C15.7574 10.8856 16.6849 10.8856 17.6787 10.8856C17.3077 11.4024 17.1089 11.9457 17.3209 12.5022C17.4799 12.8997 17.7317 13.2972 18.0497 13.5622C18.7122 14.1187 19.7458 13.9862 20.3553 13.3767C21.0841 12.6479 21.0841 11.7734 20.3023 10.6471C21.0576 10.1701 21.3623 9.42807 21.5743 8.60654C21.9718 6.93697 22.3694 5.25416 22.8066 3.5846C23.3366 1.57052 24.0654 0.9875 26.1325 0.828494C26.3975 0.801993 26.6493 0.775492 26.9143 0.762242C27.1793 0.748991 27.3383 0.616487 27.325 0.351477C27.3118 0.0997171 27.1528 -0.0327878 26.901 0.00696374C26.0132 0.152719 25.1255 0.232222 24.2642 0.470731C23.3366 0.722491 22.7669 1.43802 22.4356 2.31255C22.3296 2.59081 22.1838 2.67031 21.8923 2.67031C17.9304 2.65706 13.9685 2.65706 10.0066 2.67031C9.31761 2.67031 9.22485 2.78957 9.37061 3.45209C9.76813 5.21441 10.1524 6.97673 10.5499 8.73904C10.7884 9.77258 11.1727 10.3026 12.034 10.7796C11.6099 11.2699 11.3714 11.8529 11.5702 12.4889C11.7027 12.8732 11.9412 13.2707 12.246 13.5357C12.8555 14.0922 13.8625 14.0392 14.4986 13.496C15.2406 12.8732 15.3466 11.9854 14.7901 10.8856Z" fill="#084CBB"/>
<path d="M11.9014 28.5884C15.4128 31.3843 20.872 30.0062 22.7404 26.2828C22.4621 26.4816 22.2236 26.6671 21.9718 26.8129C21.0045 27.3826 20.0108 27.5019 19.0435 26.8526C18.6857 26.6141 18.3942 26.2166 18.1954 25.8323C17.9437 25.3686 18.0894 25.0638 18.5399 24.7988C18.646 24.7325 18.752 24.6663 18.8712 24.6265C20.5805 24.0303 21.1768 22.692 21.2298 21.0091C21.243 20.5719 21.2696 20.1214 21.3093 19.6841C21.3756 19.0216 21.6141 18.4253 22.0646 17.882C21.3888 17.034 20.5673 16.3847 19.6132 15.9077C19.5337 15.8679 19.4012 15.9077 19.3217 15.9475C19.0832 16.1065 18.858 16.292 18.6194 16.4642C18.3279 16.6895 18.3412 16.9015 18.6327 17.1267C19.0832 17.4713 19.4807 17.8688 19.6132 18.465C19.759 19.1541 19.547 19.6708 18.8977 19.9624C18.4339 20.1611 17.9437 20.3201 17.4534 20.4526C16.4994 20.7044 15.8103 21.1814 15.5056 22.2017C15.3201 22.8377 14.9358 23.4207 14.578 23.9905C14.366 24.335 14.0215 24.5735 13.571 24.5205C13.041 24.4675 12.6435 24.0435 12.7097 23.5002C12.7892 22.8907 12.935 22.2812 13.0675 21.6717C13.3458 20.3731 13.1735 19.1541 12.4315 18.0278C12.1532 17.6038 11.981 17.1267 11.7424 16.6497C10.1259 17.9218 9.13209 19.5781 8.92009 21.6452C8.84058 22.4534 8.97308 23.2882 9.01283 24.1098C9.02608 24.388 9.1851 24.5338 9.45011 24.5735C9.96688 24.653 10.4969 24.706 11.0004 24.8385C11.2919 24.918 11.5304 25.13 11.8087 25.2758C12.0207 25.3951 12.2327 25.5143 12.4712 25.5938C12.882 25.7131 13.306 25.7793 13.7168 25.9118C14.154 26.0443 14.419 26.3358 14.472 26.7996C14.525 27.2634 14.2865 27.5416 13.9155 27.7139C13.412 27.9657 12.882 28.1777 12.3785 28.4029C12.193 28.4824 12.0605 28.5354 11.9014 28.5884Z" fill="#084CBB"/>
<path d="M4.57392 9.82544C4.38841 9.67969 4.2294 9.54718 4.0704 9.41468C3.92464 9.30867 3.79214 9.20267 3.59338 9.04366C3.23562 9.60018 2.86461 10.117 2.53334 10.6867C-2.91261 20.1608 2.57309 32.1393 13.306 34.2196C22.0513 35.9024 30.5846 29.9132 31.9362 21.1546C32.4397 17.9082 32.0025 14.8076 30.6111 11.8395C30.4256 11.4553 30.4786 11.1902 30.8497 10.9782C31.1279 10.8192 31.3664 10.6205 31.6844 10.4085C30.2004 9.70619 28.7693 9.01716 27.272 8.30164C27.484 9.87845 27.696 11.389 27.9081 12.9791C28.2526 12.7538 28.5308 12.555 28.8223 12.3563C29.1933 12.1045 29.3789 12.1575 29.5644 12.555C30.4919 14.5956 30.9689 16.7422 30.8762 18.9815C30.6509 24.1757 28.3586 28.2569 23.9594 31.0262C15.9296 36.0879 5.17019 32.1128 2.33459 23.0494C0.890282 18.4383 1.60581 14.1054 4.34866 10.117C4.42817 10.0507 4.48116 9.95795 4.57392 9.82544Z" fill="#084CBB"/>
<path d="M18.5135 15.4703C16.7909 14.9535 15.0949 15.0198 13.4253 15.6823C13.3061 15.7221 13.2001 15.7883 13.0808 15.8281C12.4315 16.1328 12.405 16.1858 12.6568 16.8484C12.7495 17.0869 12.8556 17.3386 13.0013 17.5506C13.9951 18.995 14.1408 20.5585 13.7168 22.2148C13.6241 22.5726 13.5313 22.9303 13.4518 23.3014C13.4253 23.4206 13.4916 23.5531 13.5048 23.6724C13.6373 23.6326 13.8228 23.6326 13.9023 23.5399C14.0746 23.3676 14.2204 23.1556 14.3264 22.9436C14.5384 22.5063 14.7371 22.0691 14.8829 21.6186C15.1479 20.8103 15.6779 20.267 16.4597 19.9755C16.9765 19.79 17.5065 19.6442 18.0365 19.472C18.9905 19.1672 19.1098 18.6239 18.3678 17.9349C18.2088 17.7892 18.0232 17.6434 17.8775 17.4844C17.48 17.0604 17.4535 16.6761 17.8112 16.2256C18.0365 15.9871 18.275 15.7486 18.5135 15.4703Z" fill="#084CBB"/>
<path d="M22.4887 18.5577C22.0912 19.1143 22.0382 19.7635 21.9719 20.4128C21.8924 21.2078 21.8527 22.0161 21.6672 22.7846C21.4022 23.8579 20.6999 24.6265 19.6796 25.077C19.5868 25.1167 19.5073 25.1565 19.4146 25.1962C18.7521 25.501 18.7256 25.766 19.3351 26.1768C20.0374 26.6538 20.7794 26.6008 21.4817 26.1768C22.0912 25.8058 22.6742 25.3817 23.2572 24.971C23.3367 24.918 23.403 24.7987 23.4295 24.706C24.0125 22.5726 23.7475 20.5586 22.5947 18.6637C22.5815 18.624 22.5417 18.6107 22.4887 18.5577Z" fill="#084CBB"/>
<path d="M9.35737 25.4083C9.74164 26.3491 10.2849 27.1574 10.9872 27.8464C11.0534 27.9127 11.2257 27.9392 11.3184 27.9127C11.9942 27.6874 12.67 27.4489 13.3458 27.1971C13.4518 27.1574 13.5975 27.0249 13.5975 26.9321C13.5975 26.8261 13.4783 26.6671 13.3723 26.6274C13.0675 26.5081 12.7362 26.4286 12.4182 26.3624C11.9015 26.2564 11.3979 26.1239 11.0667 25.6468C11.0269 25.5806 10.9077 25.5541 10.8282 25.5408C10.3644 25.5011 9.90064 25.4613 9.35737 25.4083Z" fill="#084CBB"/>
</svg>
