<svg width="35" height="35" viewBox="0 0 35 35" fill="none" xmlns="http://www.w3.org/2000/svg">
<path d="M28.8785 17.1553C29.4399 15.5222 28.6616 14.6036 27.1944 14.0677C27.1561 14.055 27.1178 14.0295 27.0923 14.004C25.9186 12.9705 24.8724 13.2002 23.5455 13.9529C22.1421 14.7567 21.6573 15.6115 21.6828 17.2191C21.7083 18.6863 21.989 19.6687 23.4307 20.1918C24.0941 20.4342 24.6682 21.1614 25.2806 21.1614C25.9186 21.1614 26.531 20.4852 27.2072 20.2045C28.6361 19.6432 29.4399 18.7884 28.8785 17.1553ZM24.9362 23.8534C25.5486 22.1566 24.5534 21.4549 23.2393 20.6638C21.9124 19.8601 20.9683 19.9366 19.6542 20.6766C18.289 21.4421 17.6001 22.2331 17.868 23.8152C17.9828 24.5041 17.7021 25.3589 18.0083 25.8948C18.3018 26.4179 19.1821 26.5582 19.718 26.992C20.9173 27.9617 21.9252 27.8085 23.2265 27.0175C24.5279 26.2265 25.5741 25.5631 24.9362 23.8534ZM17.1918 10.4571C17.7787 8.77302 16.8346 8.03303 15.4822 7.24201C14.1808 6.48926 13.1602 6.3234 11.9736 7.29304C11.4378 7.72683 10.5574 7.86717 10.264 8.37751C9.9578 8.91336 10.1492 9.75541 10.1364 10.4571C10.1364 11.1206 9.93228 11.9243 10.2257 12.4219C10.5319 12.945 11.3867 13.0981 11.9226 13.5319C13.1474 14.5143 14.2063 14.3867 15.546 13.5702C16.8218 12.8174 17.7787 12.1157 17.1918 10.4571ZM17.1918 23.8534C17.7787 22.1821 16.8473 21.4549 15.5205 20.6638C14.2063 19.8856 13.1729 19.7197 11.9609 20.7021C11.4378 21.1359 10.5574 21.2763 10.2512 21.7993C9.94504 22.3097 10.2257 23.1517 10.1109 23.8152C9.84298 25.3972 10.5064 26.2393 11.9098 26.992C13.2367 27.7192 14.1681 27.8086 15.4949 26.992C16.7963 26.2265 17.7915 25.5503 17.1918 23.8534ZM17.9828 10.4444C17.4215 12.103 18.2252 13.0088 19.6797 13.5319C19.7052 13.5447 19.718 13.5447 19.7307 13.5574C20.8917 14.5526 21.9252 14.3357 23.2393 13.6084C24.6172 12.8302 25.102 12.0136 25.102 10.4188C25.102 8.83681 24.63 8.00751 23.2393 7.22925C21.9252 6.48926 21.0066 6.4765 19.7052 7.22925C18.3528 8.03303 17.396 8.76026 17.9828 10.4444ZM14.1043 17.1043C13.5046 18.8011 14.385 19.6814 15.8394 20.2811C16.4518 20.5363 17.0132 21.1742 17.5873 21.1742C18.1742 21.1742 18.7228 20.5107 19.3352 20.2811C20.8662 19.707 21.2617 18.6863 21.2235 17.0787C21.1979 15.5732 20.879 14.6036 19.4245 14.0677C18.7739 13.8253 18.1742 13.1236 17.5618 13.1236C16.9366 13.1236 16.3498 13.7998 15.6991 14.0805C14.3594 14.6546 13.5302 15.4967 14.1043 17.1043ZM6.34718 17.117C5.72201 18.8011 6.64061 19.6687 8.0568 20.2556C8.09507 20.2683 8.13335 20.2938 8.17163 20.3194C9.28161 21.3145 10.3661 21.3018 11.5143 20.3321C12.0502 19.8856 12.9688 19.7197 13.275 19.1839C13.5939 18.6225 13.3005 17.7549 13.4281 17.0405C13.696 15.535 13.1091 14.6164 11.7057 14.0677C11.055 13.8126 10.4554 13.1236 9.83022 13.1364C9.20506 13.1364 8.61817 13.8126 7.96749 14.0805C6.60234 14.6674 5.77305 15.4967 6.34718 17.117ZM21.8104 5.69824C21.8104 4.69033 21.7848 3.73345 21.8231 2.76381C21.8359 2.53416 21.9635 2.26624 22.1421 2.11313C22.7034 1.61556 22.8055 0.901086 22.3462 0.39075C21.8869 -0.119586 21.0576 -0.119586 20.6111 0.39075C20.1518 0.901086 20.2666 1.62832 20.8024 2.11313C20.9811 2.27899 21.1342 2.57244 21.1469 2.81485C21.1852 3.75897 21.1597 4.69033 21.1597 5.64721C21.3893 5.65996 21.5679 5.67273 21.8104 5.69824ZM14.066 5.65997C14.066 4.67757 14.0405 3.73345 14.0788 2.80208C14.0915 2.55967 14.2319 2.26623 14.4232 2.08762C14.9719 1.57728 15.0739 0.862806 14.6019 0.377987C14.1298 -0.11959 13.326 -0.119589 12.8795 0.403506C12.4457 0.901083 12.5478 1.64107 13.0836 2.12589C13.2495 2.27899 13.3898 2.54691 13.4026 2.77657C13.4408 3.73345 13.4153 4.69033 13.4153 5.67272C13.6195 5.65997 13.7981 5.65997 14.066 5.65997ZM5.69649 14.6036C4.70134 14.6036 3.76997 14.6291 2.82585 14.5908C2.55793 14.5781 2.25172 14.4377 2.06035 14.2464C1.55001 13.7233 0.822787 13.634 0.337968 14.106C-0.108576 14.5398 -0.108575 15.3053 0.350727 15.7263C0.835547 16.1856 1.60105 16.0836 2.07311 15.5732C2.23897 15.3946 2.53241 15.2415 2.77482 15.2288C3.70619 15.1905 4.65031 15.216 5.60719 15.216C5.65822 14.9864 5.67098 14.8205 5.69649 14.6036ZM29.5292 15.216C30.435 15.216 31.2643 15.1905 32.1064 15.2288C32.3743 15.2415 32.6805 15.3946 32.8719 15.586C33.3567 16.0836 34.0712 16.1729 34.556 15.7391C35.0025 15.3308 35.0408 14.5908 34.6453 14.1571C34.2243 13.6978 33.3184 13.6084 32.9612 14.1188C32.5784 14.6674 32.1191 14.6164 31.6088 14.6164C30.9836 14.6164 30.3457 14.6164 29.7206 14.6164C29.644 14.6164 29.5547 14.6419 29.4782 14.6546C29.4909 14.8333 29.5164 14.9991 29.5292 15.216ZM21.1724 28.6889C21.1724 29.6075 21.1597 30.4623 21.1724 31.3171C21.1852 31.7254 21.1214 32.0443 20.7514 32.3378C20.2283 32.7588 20.2921 33.5753 20.7769 33.9964C21.249 34.4046 22.0145 34.3281 22.3972 33.8305C22.8055 33.2947 22.6907 32.5547 22.0783 32.223C21.7721 32.0571 21.7466 31.8785 21.7466 31.585C21.7593 30.6026 21.7466 29.633 21.7466 28.6506C21.5297 28.6634 21.3638 28.6761 21.1724 28.6889ZM5.60719 19.6687C5.65822 19.5921 5.6965 19.5028 5.74753 19.4263C5.56891 19.3115 5.40306 19.1073 5.22444 19.1073C4.43342 19.069 3.62964 19.1201 2.83862 19.069C2.57069 19.0563 2.25173 18.9032 2.07311 18.7118C1.56278 18.176 0.848305 18.0867 0.350727 18.5715C-0.108575 19.0053 -0.0958196 19.7708 0.363483 20.2045C0.86106 20.6766 1.58829 20.5745 2.09863 20.0514C2.27725 19.8601 2.59621 19.707 2.86413 19.6942C3.76998 19.6432 4.70134 19.6687 5.60719 19.6687ZM13.4791 28.6251C13.4791 29.633 13.5046 30.5771 13.4664 31.5212C13.4536 31.7509 13.3133 32.0188 13.1474 32.1847C12.5733 32.695 12.4712 33.384 12.9305 33.8943C13.3643 34.3791 14.1681 34.3791 14.6019 33.8943C15.0612 33.384 14.9463 32.695 14.3977 32.1719C14.2319 32.0188 14.0915 31.7381 14.0788 31.5085C14.0405 30.5516 14.066 29.582 14.066 28.6123C13.8491 28.6251 13.6833 28.6251 13.4791 28.6251ZM29.593 19.6559C30.435 19.6559 31.2516 19.6687 32.0554 19.6559C32.4126 19.6432 32.655 19.7197 32.8974 20.0387C33.3184 20.6383 34.0967 20.6511 34.5943 20.1663C35.0408 19.7197 35.0281 18.967 34.556 18.5332C34.0712 18.0866 33.3822 18.1887 32.8974 18.7118C32.7315 18.8904 32.4381 19.0435 32.1957 19.0563C31.494 19.1073 30.7795 19.0818 30.065 19.069C29.6823 19.069 29.5037 19.1839 29.593 19.6559Z" fill="white"/>
<path d="M28.8787 17.1553C29.4273 18.7756 28.6362 19.6432 27.2201 20.2173C26.5439 20.4852 25.9315 21.1614 25.2935 21.1742C24.6811 21.1742 24.0943 20.4469 23.4436 20.2045C22.0019 19.6687 21.7212 18.699 21.6957 17.2318C21.6702 15.6243 22.1422 14.7695 23.5584 13.9657C24.8853 13.2129 25.9315 12.9705 27.1052 14.0167C27.1308 14.0422 27.169 14.0677 27.2073 14.0805C28.6618 14.6036 29.44 15.535 28.8787 17.1553Z" fill="#084CBB"/>
<path d="M24.9364 23.8536C25.5616 25.5632 24.5154 26.2266 23.2268 27.0176C21.9382 27.8087 20.9175 27.949 19.7182 26.9921C19.1824 26.5583 18.302 26.418 18.0086 25.8949C17.7024 25.3463 17.9831 24.5042 17.8682 23.8153C17.5876 22.2332 18.2893 21.4422 19.6544 20.6767C20.9813 19.9367 21.9126 19.8602 23.2395 20.664C24.5536 21.4677 25.5488 22.1567 24.9364 23.8536Z" fill="#084CBB"/>
<path d="M17.1919 10.4572C17.7788 12.1158 16.8347 12.8048 15.5334 13.5958C14.1937 14.3996 13.1348 14.5399 11.91 13.5575C11.3869 13.1365 10.5321 12.9706 10.2131 12.4475C9.91966 11.9499 10.1238 11.1462 10.1238 10.4827C10.1238 9.78101 9.93241 8.93896 10.2514 8.4031C10.5448 7.88001 11.4379 7.73967 11.961 7.31864C13.1475 6.349 14.1682 6.52762 15.4696 7.2676C16.822 8.03311 17.7788 8.77309 17.1919 10.4572Z" fill="#084CBB"/>
<path d="M17.192 23.8537C17.8044 25.5506 16.7965 26.2268 15.4952 27.0178C14.1683 27.8216 13.2369 27.7322 11.9101 27.0178C10.5066 26.2523 9.8432 25.423 10.1111 23.8409C10.2259 23.1647 9.94526 22.3355 10.2515 21.8251C10.5577 21.302 11.4252 21.1617 11.9611 20.7279C13.1731 19.7327 14.2066 19.8986 15.5207 20.6896C16.8348 21.4551 17.7789 22.1823 17.192 23.8537Z" fill="#084CBB"/>
<path d="M17.9829 10.4445C17.396 8.76042 18.3529 8.02043 19.7053 7.24217C21.0067 6.48942 21.9253 6.51494 23.2394 7.24217C24.6301 8.02043 25.1021 8.83697 25.1021 10.4318C25.1021 12.0266 24.6173 12.8431 23.2394 13.6214C21.9253 14.3614 20.8918 14.5655 19.7308 13.5703C19.7181 13.5576 19.6926 13.5448 19.6798 13.5448C18.2381 13.009 17.4216 12.1159 17.9829 10.4445Z" fill="#084CBB"/>
<path d="M14.1043 17.1043C13.5302 15.484 14.3595 14.6547 15.7119 14.0805C16.3625 13.7999 16.9494 13.1237 17.5746 13.1237C18.187 13.1237 18.7866 13.8254 19.4373 14.0678C20.8918 14.6036 21.198 15.586 21.2363 17.0788C21.2618 18.6863 20.879 19.707 19.348 20.2811C18.7356 20.5108 18.1742 21.1742 17.6001 21.1742C17.0132 21.1742 16.4646 20.5363 15.8522 20.2811C14.3978 19.6815 13.5047 18.8011 14.1043 17.1043Z" fill="#084CBB"/>
<path d="M6.3473 17.1171C5.77318 15.4968 6.60247 14.6675 7.96762 14.0806C8.6183 13.7999 9.20518 13.1365 9.83035 13.1365C10.4555 13.1365 11.0424 13.8254 11.7058 14.0678C13.1093 14.6037 13.6834 15.5351 13.4282 17.0405C13.3006 17.755 13.5941 18.6226 13.2751 19.184C12.9689 19.7198 12.0631 19.8729 11.5145 20.3322C10.3662 21.3019 9.28173 21.3146 8.17175 20.3195C8.14624 20.2939 8.0952 20.2684 8.05693 20.2557C6.64074 19.6688 5.72214 18.8012 6.3473 17.1171Z" fill="#084CBB"/>
<path d="M21.8106 5.69836C21.5682 5.6856 21.3768 5.67285 21.1599 5.66009C21.1599 4.70321 21.1854 3.75909 21.1471 2.82772C21.1344 2.58531 20.9813 2.29187 20.8027 2.12601C20.2541 1.62843 20.152 0.913962 20.6113 0.403626C21.0578 -0.10671 21.8744 -0.10671 22.3464 0.403626C22.8057 0.901204 22.7037 1.61567 22.1423 2.12601C21.9764 2.27911 21.8361 2.55979 21.8233 2.77669C21.7978 3.72081 21.8106 4.69045 21.8106 5.69836Z" fill="#084CBB"/>
<path d="M14.0663 5.66008C13.8112 5.66008 13.6198 5.66008 13.4029 5.66008C13.4029 4.69044 13.4284 3.73356 13.3901 2.76392C13.3774 2.53427 13.237 2.26635 13.0712 2.11325C12.5353 1.62843 12.4205 0.888441 12.867 0.390863C13.3136 -0.119473 14.1174 -0.132233 14.5894 0.365345C15.0615 0.862922 14.9594 1.56463 14.4108 2.07497C14.2322 2.24082 14.0791 2.53427 14.0663 2.78944C14.0408 3.73356 14.0663 4.67768 14.0663 5.66008Z" fill="#084CBB"/>
<path d="M5.69663 14.6039C5.67111 14.8208 5.6456 14.9866 5.62008 15.2163C4.6632 15.2163 3.71908 15.1908 2.78771 15.229C2.5453 15.2418 2.25186 15.3949 2.086 15.5735C1.60118 16.0838 0.848435 16.1859 0.363616 15.7266C-0.0956862 15.2928 -0.108442 14.5401 0.350861 14.1063C0.83568 13.6342 1.56291 13.7235 2.07324 14.2466C2.25186 14.438 2.57082 14.5784 2.83875 14.5911C3.77011 14.6294 4.71423 14.6039 5.69663 14.6039Z" fill="#084CBB"/>
<path d="M29.5293 15.216C29.5038 14.9991 29.491 14.8333 29.4783 14.6419C29.5548 14.6291 29.6441 14.6036 29.7207 14.6036C30.3458 14.6036 30.9838 14.6036 31.6089 14.6036C32.1193 14.6036 32.5786 14.6547 32.9613 14.1061C33.3185 13.5957 34.2244 13.685 34.6454 14.1443C35.0409 14.5909 35.0027 15.3309 34.5561 15.7264C34.0713 16.1601 33.3696 16.0708 32.872 15.5733C32.6806 15.3819 32.3744 15.2288 32.1065 15.216C31.2772 15.1905 30.4352 15.216 29.5293 15.216Z" fill="#084CBB"/>
<path d="M21.1726 28.689C21.364 28.6762 21.5298 28.6635 21.7595 28.6379C21.7595 29.6203 21.7722 30.6027 21.7595 31.5724C21.7595 31.8658 21.785 32.0444 22.0912 32.2103C22.7036 32.5548 22.8312 33.2948 22.4102 33.8179C22.0274 34.3154 21.2619 34.392 20.7898 33.9837C20.2923 33.5627 20.2412 32.7461 20.7643 32.3251C21.1343 32.0317 21.1981 31.7255 21.1854 31.3044C21.1598 30.4624 21.1726 29.6076 21.1726 28.689Z" fill="#084CBB"/>
<path d="M5.60739 19.6688C4.68878 19.6688 3.77017 19.6433 2.85157 19.6816C2.58364 19.6944 2.27744 19.8475 2.08606 20.0388C1.58848 20.5747 0.861259 20.664 0.350923 20.1919C-0.10838 19.7581 -0.121139 19.0054 0.338164 18.5589C0.835741 18.074 1.55021 18.1633 2.06054 18.6992C2.23916 18.8906 2.55812 19.0437 2.82605 19.0564C3.61707 19.1075 4.42085 19.0564 5.21187 19.0947C5.39049 19.1075 5.55635 19.2988 5.73497 19.4137C5.70945 19.503 5.65842 19.5923 5.60739 19.6688Z" fill="#084CBB"/>
<path d="M13.4795 28.6252C13.6837 28.6252 13.8495 28.6252 14.0537 28.6252C14.0537 29.5949 14.0281 30.5645 14.0664 31.5214C14.0792 31.7511 14.2195 32.0317 14.3854 32.1848C14.9467 32.6952 15.0488 33.3969 14.5895 33.9072C14.1557 34.392 13.3519 34.392 12.9182 33.9072C12.4589 33.3841 12.5609 32.7079 13.1351 32.1976C13.3009 32.0445 13.454 31.7638 13.454 31.5342C13.505 30.5773 13.4795 29.6332 13.4795 28.6252Z" fill="#084CBB"/>
<path d="M29.5933 19.6561C29.5039 19.184 29.6826 19.0692 30.0526 19.0692C30.767 19.0947 31.4815 19.1075 32.1832 19.0564C32.4256 19.0437 32.7191 18.8906 32.8849 18.712C33.3697 18.1761 34.0587 18.0868 34.5435 18.5333C35.0156 18.9671 35.0283 19.7071 34.5818 20.1664C34.097 20.664 33.3187 20.6385 32.8849 20.0388C32.6553 19.7071 32.4001 19.6433 32.0429 19.6561C31.2518 19.6689 30.4353 19.6561 29.5933 19.6561Z" fill="#084CBB"/>
</svg>
