<svg width="39" height="43" viewBox="0 0 39 43" fill="none" xmlns="http://www.w3.org/2000/svg">
<path d="M0 18.9309C0 23.3255 1.36146 27.1514 3.79142 30.5981C7.4622 35.8027 12.4427 39.439 18.0609 42.2826C18.7848 42.6445 19.5258 42.6445 20.2324 42.2653C21.3353 41.6794 22.4555 41.1107 23.5413 40.4558C27.8325 37.8535 31.6583 34.6997 34.5364 30.5464C38.0348 25.4797 39.2239 19.9649 37.5695 13.9676C34.5536 3.12755 22.714 -2.78362 12.2532 1.31801C4.84267 4.19604 0.13787 11.0206 0 18.9309Z" fill="white"/>
<path d="M0 18.9309C0.13787 11.0378 4.84267 4.19602 12.2532 1.30076C22.714 -2.78363 34.5536 3.1103 37.5695 13.9503C39.2412 19.9476 38.0348 25.4624 34.5364 30.5291C31.6583 34.6997 27.8325 37.8362 23.5413 40.4385C22.4728 41.0934 21.3526 41.6621 20.2324 42.2481C19.5258 42.6272 18.7848 42.6272 18.0609 42.2653C12.4427 39.4218 7.4622 35.7854 3.79142 30.5809C1.36146 27.1513 0 23.3255 0 18.9309ZM4.25673 19.1032C4.2395 22.1019 5.13564 24.8248 6.73838 27.3409C9.73705 32.0457 14.0455 35.2857 18.8709 37.9052C19.0088 37.9741 19.2673 37.9741 19.4052 37.9052C23.6964 35.5959 27.574 32.7351 30.5382 28.8058C33.0543 25.4624 34.3985 21.7572 33.9332 17.5005C33.0543 9.50401 25.8678 3.61008 17.8714 4.35113C10.1334 5.02324 4.2912 11.3825 4.25673 19.1032Z" fill="#084CBB"/>
<path d="M4.25659 19.1032C4.29105 11.3652 10.1333 5.02322 17.8712 4.31664C25.8677 3.59282 33.0369 9.46952 33.933 17.466C34.3984 21.7227 33.0714 25.428 30.538 28.7713C27.5738 32.7006 23.7135 35.5614 19.405 37.8707C19.2672 37.9396 19.0086 37.9396 18.8708 37.8707C14.0453 35.2512 9.7369 32.0112 6.73824 27.3064C5.15273 24.842 4.23935 22.1018 4.25659 19.1032ZM16.527 21.2919C15.9066 20.2578 15.3206 19.2583 14.7174 18.2932C14.5451 18.0002 14.3383 17.7245 14.0798 17.5004C13.3043 16.8628 12.1669 16.88 11.4086 17.5177C10.5986 18.1898 10.3918 19.2927 10.9605 20.2406C11.9601 21.964 12.9941 23.6529 14.0281 25.359C14.8553 26.7377 16.2168 26.979 17.4921 25.9622C18.5606 25.1177 19.6291 24.2561 20.6803 23.4116C23.0413 21.5159 25.4196 19.6202 27.7806 17.7245C28.4527 17.1902 28.8146 16.5354 28.694 15.6737C28.4527 14.0192 26.626 13.2609 25.2817 14.2777C24.0754 15.2083 22.8862 16.1734 21.6971 17.1213C20.0082 18.5172 18.3021 19.8787 16.527 21.2919Z" fill="white"/>
<path d="M16.5271 21.2919C18.285 19.8787 20.0084 18.5172 21.7145 17.1558C22.9036 16.2079 24.0755 15.2256 25.2991 14.3122C26.6261 13.2954 28.4701 14.0537 28.7114 15.7081C28.832 16.5698 28.4529 17.2247 27.798 17.759C25.4197 19.6547 23.0587 21.5504 20.6977 23.4461C19.6292 24.2905 18.578 25.1522 17.5095 25.9967C16.2342 27.0135 14.8899 26.7722 14.0455 25.3935C13.0115 23.6874 11.9947 21.9812 10.9779 20.2751C10.4264 19.3272 10.616 18.2243 11.426 17.5522C12.1842 16.9145 13.3389 16.88 14.0972 17.5349C14.3557 17.7417 14.5625 18.0347 14.7348 18.3277C15.3208 19.2583 15.9067 20.2406 16.5271 21.2919Z" fill="#084CBB"/>
</svg>
