<svg width="17" height="17" viewBox="0 0 17 17" fill="none" xmlns="http://www.w3.org/2000/svg">
<g clip-path="url(#clip0_56_983)">
<path d="M8.5 5.66667L6.375 6.90625V9.38542L8.5 10.625L10.625 9.38542V6.90625L8.5 5.66667ZM9.57454 7.11167L8.49079 7.7435L7.41625 7.11662L8.5 6.48479L9.57454 7.11167ZM7.07625 7.73642L8.12742 8.34983V9.58942L7.07625 8.97671V7.73642ZM8.82867 9.61562V8.364L9.92375 7.72508V8.97671L8.82867 9.61562ZM2.125 0L0 1.23958V3.71875L2.125 4.95833L4.25 3.71875V1.23958L2.125 0ZM3.19954 1.445L2.11579 2.07683L1.04125 1.44996L2.125 0.818125L3.19954 1.445ZM0.70125 2.06904L1.75242 2.68246V3.92204L0.70125 3.31075V2.06904ZM2.45367 3.94825V2.69733L3.54875 2.05842V3.31004L2.45367 3.94825ZM2.125 12.0417L0 13.2812V15.7604L2.125 17L4.25 15.7604V13.2812L2.125 12.0417ZM3.19954 13.4867L2.11579 14.1185L1.04125 13.4916L2.125 12.8598L3.19954 13.4867ZM0.70125 14.1114L1.75242 14.7248V15.9644L0.70125 15.3524V14.1114ZM2.45367 15.9906V14.739L3.54875 14.1001V15.3517L2.45367 15.9906ZM14.875 0L12.75 1.23958V3.71875L14.875 4.95833L17 3.71875V1.23958L14.875 0ZM15.9495 1.445L14.8658 2.07683L13.7912 1.44996L14.875 0.818125L15.9495 1.445ZM13.4512 2.06975L14.5024 2.68317V3.92275L13.4512 3.31004V2.06975ZM15.2037 3.94896V2.69733L16.2987 2.05842V3.31004L15.2037 3.94896ZM14.875 12.0417L12.75 13.2812V15.7604L14.875 17L17 15.7604V13.2812L14.875 12.0417ZM15.9495 13.4867L14.8658 14.1185L13.7912 13.4916L14.875 12.8598L15.9495 13.4867ZM13.4512 14.1114L14.5024 14.7248V15.9644L13.4512 15.3517V14.1114ZM15.2037 15.9906V14.739L16.2987 14.1001V15.3517L15.2037 15.9906ZM6.375 2.125H10.625V2.83333H6.375V2.125ZM6.375 14.1667H10.625V14.875H6.375V14.1667ZM2.47917 6.375V10.625H1.77083V6.375H2.47917ZM5.16587 6.25317L3.6635 4.75079L4.16429 4.25L5.66667 5.75167L5.16587 6.25317ZM11.3333 5.87421L12.8357 4.37183L13.3365 4.87262L11.8341 6.375L11.3333 5.87421ZM5.75733 10.5393L4.25496 12.0417L3.75417 11.5409L5.25654 10.0385L5.75733 10.5393ZM11.956 10.008L13.4583 11.5104L12.9575 12.0112L11.4552 10.5088L11.956 10.008ZM15.2292 6.375V10.625H14.5208V6.375H15.2292Z" fill="white"/>
</g>
<defs>
<clipPath id="clip0_56_983">
<rect width="17" height="17" fill="white"/>
</clipPath>
</defs>
</svg>
