<svg width="21" height="21" viewBox="0 0 21 21" fill="none" xmlns="http://www.w3.org/2000/svg">
<path d="M18.375 16.6707H17.4543V3.28125C17.4543 3.17735 17.413 3.0777 17.3395 3.00423C17.266 2.93076 17.1664 2.88949 17.0625 2.88949H12.4688C12.3648 2.88949 12.2652 2.93076 12.1917 3.00423C12.1183 3.0777 12.077 3.17735 12.077 3.28125V6.82699H7.875C7.7711 6.82699 7.67145 6.86826 7.59798 6.94173C7.52451 7.0152 7.48324 7.11485 7.48324 7.21875V10.7645H3.9375C3.8336 10.7645 3.73395 10.8058 3.66048 10.8792C3.58701 10.9527 3.54574 11.0523 3.54574 11.1562V16.6707H2.625C2.5211 16.6707 2.42145 16.712 2.34798 16.7855C2.27451 16.859 2.23324 16.9586 2.23324 17.0625C2.23324 17.1664 2.27451 17.266 2.34798 17.3395C2.42145 17.413 2.5211 17.4543 2.625 17.4543H18.375C18.4789 17.4543 18.5785 17.413 18.652 17.3395C18.7255 17.266 18.7668 17.1664 18.7668 17.0625C18.7668 16.9586 18.7255 16.859 18.652 16.7855C18.5785 16.712 18.4789 16.6707 18.375 16.6707ZM12.8605 3.67301H16.6707V16.6707H12.8605V3.67301ZM8.26676 7.61051H12.077V16.6707H8.26676V7.61051ZM4.32926 11.548H7.48324V16.6707H4.32926V11.548Z" fill="white" stroke="white" stroke-width="0.127273"/>
</svg>
