<svg width="18" height="18" viewBox="0 0 18 18" fill="none" xmlns="http://www.w3.org/2000/svg">
<path d="M11.25 3.9375C11.8965 3.9375 12.5165 3.68069 12.9736 3.22357C13.4307 2.76645 13.6875 2.14647 13.6875 1.5H14.8125C14.8125 2.14647 15.0693 2.76645 15.5264 3.22357C15.9835 3.68069 16.6035 3.9375 17.25 3.9375V5.0625C16.6035 5.0625 15.9835 5.31931 15.5264 5.77643C15.0693 6.23355 14.8125 6.85353 14.8125 7.5H13.6875C13.6875 6.85353 13.4307 6.23355 12.9736 5.77643C12.5165 5.31931 11.8965 5.0625 11.25 5.0625V3.9375ZM3 5.25C3 4.85218 3.15804 4.47064 3.43934 4.18934C3.72064 3.90804 4.10218 3.75 4.5 3.75H9.75V2.25H4.5C3.70435 2.25 2.94129 2.56607 2.37868 3.12868C1.81607 3.69129 1.5 4.45435 1.5 5.25V12.75C1.5 13.5456 1.81607 14.3087 2.37868 14.8713C2.94129 15.4339 3.70435 15.75 4.5 15.75H13.5C14.2956 15.75 15.0587 15.4339 15.6213 14.8713C16.1839 14.3087 16.5 13.5456 16.5 12.75V9H15V12.75C15 13.1478 14.842 13.5294 14.5607 13.8107C14.2794 14.092 13.8978 14.25 13.5 14.25H4.5C4.10218 14.25 3.72064 14.092 3.43934 13.8107C3.15804 13.5294 3 13.1478 3 12.75V5.25Z" fill="white"/>
</svg>
