<?xml version="1.0" encoding="utf-8"?>
<!-- Generator: Adobe Illustrator 26.5.0, SVG Export Plug-In . SVG Version: 6.00 Build 0)  -->
<svg version="1.1" id="Layer_1" xmlns="http://www.w3.org/2000/svg" xmlns:xlink="http://www.w3.org/1999/xlink" x="0px" y="0px" with="auto" height="61px"
	 viewBox="0 0 792 144.8" style="enable-background:new 0 0 792 144.8;" xml:space="preserve">
<style type="text/css">
	.st0{fill:#3B3B3C;}
	.st1{fill:#F18E24;}
	.st2{fill:#F28E23;}
</style>
<g>
	<g>
		<path class="st0" d="M174.9,50.6h32.5v9.2h-11.2v40.9h-10V59.9h-11.2V50.6L174.9,50.6z"/>
		<path class="st0" d="M242.9,50.6c2.9,0,5.5,0.3,7.9,0.9c2.4,0.6,4.5,1.5,6.2,2.7c1.7,1.2,3.1,2.8,4.1,4.8s1.5,4.3,1.5,7
			c0,3.2-0.9,6-2.6,8.4s-4.4,4.4-7.9,5.8l14.8,20.6h-12l-12.6-19.5h-1.5v19.5h-10V50.6H242.9L242.9,50.6z M240.8,73.5h2.2
			c3.1,0,5.4-0.6,7.1-1.7s2.5-3,2.5-5.5c0-2.4-0.8-4.2-2.4-5.2c-1.6-1.1-3.9-1.7-7-1.7h-2.5L240.8,73.5L240.8,73.5z"/>
		<path class="st0" d="M288.5,50.6h10.1v30.6c0,4,0.9,6.9,2.6,8.7s4.1,2.6,7,2.6s5.2-0.9,7-2.7c1.8-1.8,2.6-4.7,2.6-8.8V50.6h10
			v31.7c0,3.2-0.5,6-1.5,8.4s-2.4,4.4-4.2,6.1c-1.8,1.6-3.8,2.8-6.2,3.7c-2.4,0.8-5,1.3-7.7,1.3s-5.3-0.4-7.7-1.3
			c-2.4-0.8-4.5-2.1-6.2-3.7s-3.2-3.6-4.2-6.1c-1-2.4-1.5-5.2-1.5-8.4L288.5,50.6L288.5,50.6z"/>
		<path class="st0" d="M353.5,76c0-3.6,0.7-7,2-10.2c1.3-3.2,3.2-6,5.5-8.3s5.2-4.3,8.4-5.7c3.2-1.4,6.7-2.1,10.5-2.1
			c4.4,0,8.6,1.1,12.8,3.3l0.1,11.3c-4.2-3.6-8.5-5.4-12.9-5.4c-2.2,0-4.3,0.4-6.3,1.3s-3.7,2-5.2,3.6c-1.5,1.5-2.7,3.3-3.5,5.3
			s-1.3,4.3-1.3,6.7s0.4,4.5,1.3,6.5s2,3.8,3.5,5.3c1.5,1.5,3.2,2.7,5.3,3.6c2,0.9,4.2,1.3,6.5,1.3c1.2,0,2.4-0.1,3.5-0.3
			c1.1-0.2,2.1-0.5,3.1-1c1-0.4,2-1,3-1.7c1-0.7,2.1-1.6,3.2-2.5l-0.1,11.4c-2,1.1-4.2,1.9-6.5,2.5c-2.4,0.6-4.7,0.8-7,0.8
			c-3.6,0-7-0.7-10.1-2s-5.8-3.2-8.1-5.5c-2.3-2.3-4.1-5.1-5.5-8.2C354.1,82.9,353.5,79.6,353.5,76L353.5,76z"/>
		<path class="st0" d="M429.5,50.6l-0.1,20.4l17.9-20.4h12.2l-20.9,22.9l21.4,27.2h-12.6l-16.7-22.5l-1.3,0.7l0.1,21.8h-10V50.6
			H429.5L429.5,50.6z"/>
		<path class="st0" d="M511.7,50.6v8.7h-19.2v10.3H511v8.5h-18.4v14h19.3v8.7h-29.3V50.6H511.7L511.7,50.6z"/>
		<path class="st0" d="M551.1,50.6c2.9,0,5.5,0.3,7.9,0.9c2.4,0.6,4.5,1.5,6.2,2.7c1.7,1.2,3.1,2.8,4.1,4.8s1.5,4.3,1.5,7
			c0,3.2-0.9,6-2.6,8.4c-1.7,2.4-4.3,4.4-7.8,5.8l14.8,20.6h-12l-12.6-19.5h-1.5v19.5h-10V50.6H551.1L551.1,50.6z M549,73.5h2.2
			c3.1,0,5.4-0.6,7.1-1.7c1.7-1.2,2.5-3,2.5-5.5c0-2.4-0.8-4.2-2.4-5.2c-1.6-1.1-3.9-1.7-7-1.7H549L549,73.5L549,73.5z"/>
	</g>
	<g>
		<path class="st1" d="M593.5,76.1c0-4.1,0.7-7.7,2.1-11c1.4-3.2,3.4-6,5.8-8.2c2.5-2.3,5.4-4,8.8-5.2s7.1-1.8,11-1.8
			c2.5,0,5,0.3,7.5,0.8c2.5,0.5,4.9,1.3,7,2.4c2.2,1.1,4.2,2.4,5.9,4.1c1.8,1.6,3.1,3.5,4.1,5.6l-17,6.2c-1.5-2.6-4-3.9-7.6-3.9
			c-1.5,0-2.8,0.3-4,0.8c-1.2,0.6-2.2,1.3-3,2.3c-0.8,1-1.4,2.1-1.8,3.5c-0.4,1.3-0.6,2.8-0.6,4.4c0,1.5,0.2,2.9,0.6,4.2
			s1,2.5,1.8,3.5s1.8,1.8,3,2.4c1.2,0.6,2.5,0.9,4,0.9c1.9,0,3.4-0.3,4.7-1c1.3-0.6,2.2-1.6,2.7-2.9v-0.1h-8.2V70.9h28.1v2.7
			c0,4.4-0.6,8.3-1.9,11.8c-1.3,3.5-3.1,6.4-5.4,8.8s-5.2,4.2-8.6,5.5s-7.2,1.9-11.4,1.9c-3.8,0-7.4-0.6-10.8-1.7
			c-3.4-1.2-6.3-2.8-8.8-5c-2.5-2.2-4.5-4.9-5.9-8S593.5,80.1,593.5,76.1L593.5,76.1z"/>
		<path class="st1" d="M672.3,100.8V50.6h17.6v50.2H672.3z"/>
		<path class="st1" d="M713.6,76.1c0-4.1,0.7-7.7,2.1-11c1.4-3.2,3.4-6,5.8-8.2c2.5-2.3,5.4-4,8.8-5.2s7.1-1.8,11-1.8
			c2.5,0,5,0.3,7.5,0.8c2.5,0.5,4.9,1.3,7,2.4s4.2,2.4,5.9,4.1c1.8,1.6,3.1,3.5,4.1,5.6L749,69c-1.5-2.6-4-3.9-7.6-3.9
			c-1.5,0-2.8,0.3-4,0.8c-1.2,0.6-2.2,1.3-3,2.3c-0.8,1-1.4,2.1-1.8,3.5c-0.4,1.3-0.6,2.8-0.6,4.4c0,1.5,0.2,2.9,0.6,4.2
			s1,2.5,1.8,3.5s1.8,1.8,3,2.4c1.2,0.6,2.5,0.9,4,0.9c1.9,0,3.4-0.3,4.7-1c1.3-0.6,2.2-1.6,2.7-2.9v-0.1h-8.2V70.9h28.1v2.7
			c0,4.4-0.6,8.3-1.9,11.8c-1.3,3.5-3.1,6.4-5.4,8.8s-5.2,4.2-8.6,5.5s-7.2,1.9-11.4,1.9c-3.8,0-7.4-0.6-10.8-1.7s-6.3-2.8-8.8-5
			c-2.5-2.2-4.5-4.9-5.9-8S713.6,80.1,713.6,76.1L713.6,76.1z"/>
	</g>
	<path class="st2" d="M158.1,134l-4.8-60.1L137.7,84l-17.4-8.7V28.5L78,8.2l-40.8,22v41.5L22.9,79l60.3,43.1L63,135.2L158.1,134
		L158.1,134z M114.4,78.1L83.6,98.8V56l30.9-17.8C114.4,38.1,114.4,78.1,114.4,78.1z M73.2,98.8l-30-20.6L43.7,41l29.5,15.3V98.8
		L73.2,98.8z M78,47.9L48.5,32L78,15.6l31.4,14.7C109.4,30.3,78,47.9,78,47.9z"/>
</g>
</svg>
