<svg width="24" height="25" viewBox="0 0 24 25" fill="none" xmlns="http://www.w3.org/2000/svg">
<path d="M15.5819 12.0644C15.5819 14.0444 13.9819 15.6444 12.0019 15.6444C10.0219 15.6444 8.42188 14.0444 8.42188 12.0644C8.42188 10.0844 10.0219 8.48438 12.0019 8.48438C13.9819 8.48438 15.5819 10.0844 15.5819 12.0644Z" stroke="#2E2E2E" stroke-opacity="0.7" stroke-width="1.5" stroke-linecap="round" stroke-linejoin="round"/>
<path d="M11.9998 20.3347C15.5298 20.3347 18.8198 18.2547 21.1098 14.6547C22.0098 13.2447 22.0098 10.8747 21.1098 9.46467C18.8198 5.86467 15.5298 3.78467 11.9998 3.78467C8.46984 3.78467 5.17984 5.86467 2.88984 9.46467C1.98984 10.8747 1.98984 13.2447 2.88984 14.6547C5.17984 18.2547 8.46984 20.3347 11.9998 20.3347Z" stroke="#2E2E2E" stroke-opacity="0.7" stroke-width="1.5" stroke-linecap="round" stroke-linejoin="round"/>
</svg>
