<svg width="83" height="50" viewBox="0 0 83 50" fill="none" xmlns="http://www.w3.org/2000/svg">
<g clip-path="url(#clip0_503_639)">
<path d="M0 40.5034V50.0002H9.70648C11.3406 50.0002 12.7281 49.4328 13.8752 48.292C15.0284 47.1511 15.6019 45.7636 15.6019 44.1048V26.3691H5.88924C4.26122 26.3691 2.86754 26.9365 1.72052 28.0773C0.573507 29.2182 0 30.6119 0 32.2645V40.5034Z" fill="white"/>
<path d="M0 9.4968V0H9.70648C11.3406 0 12.7281 0.567341 13.8752 1.70819C15.0284 2.84904 15.6019 4.24273 15.6019 5.89541V23.631H5.88924C4.26122 23.631 2.86754 23.0637 1.72052 21.9228C0.573507 20.7881 0 19.3883 0 17.7355V9.4968Z" fill="white"/>
<path d="M29.7919 36.7994V43.6752H22.7556C21.5778 43.6752 20.5664 43.2621 19.7339 42.4358C18.9014 41.6094 18.4883 40.6042 18.4883 39.4079V26.5625H25.5245C26.7085 26.5625 27.7137 26.9757 28.5462 27.802C29.3787 28.6284 29.7919 29.6336 29.7919 30.8299V36.7932V36.7994Z" fill="white"/>
<path d="M45.527 22.4036L45.4961 22.2617C45.5023 22.311 45.5146 22.3542 45.527 22.4036Z" fill="white"/>
<path d="M28.0412 0.314761C27.2827 0.314761 26.3145 0.912935 25.9877 1.55428L22.2383 12.0316V12.2289L25.9445 22.2993L25.926 22.2561C26.1788 22.9406 27.221 23.625 28.035 23.625H29.7864L25.2723 11.9021L29.7247 0.308594" fill="white"/>
<path d="M20.4545 0.308594H18.7031V22.2561C18.8326 23.0331 19.4986 23.625 20.3127 23.625H22.064V1.67761C21.9406 0.900599 21.2684 0.308594 20.4545 0.308594Z" fill="white"/>
<path d="M33.3244 23.625H35.0757V1.67761C34.9524 0.900599 34.2802 0.308594 33.4662 0.308594H31.7148V22.2561C31.8382 23.0331 32.5104 23.625 33.3244 23.625Z" fill="white"/>
<path d="M45.4916 22.2619L45.5224 22.4038C45.7383 23.1067 46.6448 23.6248 47.4033 23.6248H48.9882L46.6448 13.9121C47.9768 13.3695 48.6366 12.0806 48.6366 10.0456V4.30434C48.6366 1.64031 47.354 0.314453 44.7886 0.314453H38.2148V22.2557C38.3382 23.0327 39.0104 23.6248 39.8244 23.6248H41.5757V14.2081H43.6046L45.4916 22.2557V22.2619ZM45.2881 9.85439C45.2881 10.9767 44.7886 11.5441 43.7834 11.5441H41.5757V3.13266H43.7834C44.7824 3.13266 45.2881 3.7 45.2881 4.82235V9.85439Z" fill="white"/>
<path d="M61.2418 19.6966V14.7262C61.2418 13.9059 61.1616 13.3448 60.9951 13.0549C60.8286 12.7651 60.6005 12.5123 60.3106 12.3088C60.0208 12.1052 59.5213 11.8155 58.8245 11.4516L55.6423 9.86056C55.223 9.62009 54.9209 9.42892 54.7297 9.27477C54.5447 9.12056 54.4522 8.83071 54.4522 8.39907V4.53251C54.4522 3.60133 54.927 3.13882 55.8891 3.13882H56.4132C57.3938 3.13882 57.8809 3.60133 57.8809 4.53251V5.22935C57.9981 5.93852 58.5777 6.4997 59.3054 6.57987H61.2418V4.30434C61.2418 1.64031 59.8974 0.314453 57.2211 0.314453H55.1244C52.4419 0.314453 51.1037 1.64647 51.1037 4.30434V9.07743C51.1037 9.68173 51.1715 10.1751 51.3134 10.5574C51.4552 10.9398 51.6834 11.2481 51.9978 11.4824C52.3123 11.723 52.818 12.0127 53.521 12.3581L56.7031 14.017C57.1224 14.2575 57.4245 14.4487 57.6095 14.6028C57.7946 14.757 57.8871 15.0468 57.8871 15.4785V19.4437C57.8871 20.3564 57.4431 20.8066 56.5551 20.8066H55.9569C54.9579 20.8066 54.4522 20.3502 54.4522 19.4437V18.1795H52.115C51.5909 18.3831 51.1962 18.8517 51.0975 19.4252C51.1222 22.2311 52.4603 23.6371 55.1182 23.6371H57.1841C59.8913 23.6371 61.2418 22.3298 61.2418 19.7089V19.6966Z" fill="white"/>
<path d="M79.5996 23.625H81.3879V1.67762C81.2652 0.900599 80.5926 0.308594 79.7785 0.308594H78.0273V22.4411C78.2184 23.1256 78.8473 23.6312 79.5934 23.6312L79.5996 23.625Z" fill="white"/>
<path d="M67.8512 1.68372C67.7278 0.906717 67.0803 0.290039 66.2663 0.290039H64.4102V22.256C64.5027 22.8419 64.9096 23.3229 65.4585 23.5202H67.8512V1.68372Z" fill="white"/>
<path d="M74.9709 1.67756C74.8475 0.900545 74.0396 0.290039 73.2256 0.290039H71.4805V8.25131L74.9709 11.3717V1.67756Z" fill="white"/>
<path d="M74.9709 12.5923L71.4805 15.7127V22.2556C71.573 22.8414 71.9799 23.3224 72.5227 23.5198H74.9647V12.5923H74.9709Z" fill="white"/>
<path d="M71.6531 13.3696H71.4805V15.0531L74.9709 12.0006L71.4805 8.94189V10.5638H71.6531V13.3696Z" fill="white"/>
<path d="M71.4714 10.5635H67.8516V13.3632H71.4714V10.5635Z" fill="white"/>
<path d="M71.6593 10.5635H71.4805V13.3632H71.6593V10.5635Z" fill="white"/>
<path d="M25.9297 1.6837C25.9481 1.64053 25.9666 1.59736 25.9852 1.5542L25.9297 1.6837Z" fill="#084CBB"/>
<path d="M57.8828 5.22296C57.8828 5.22296 57.8828 5.22296 57.8828 5.2168V6.58581H59.4923C59.4307 6.58581 59.3691 6.58581 59.3073 6.57348H57.8828V5.22296Z" fill="white"/>
<path d="M57.8828 5.22314V6.57366H59.3073C58.5859 6.4935 58.0062 5.93232 57.8828 5.22314Z" fill="white"/>
<path d="M45.4919 22.262L45.8003 23.6249H45.8126L45.529 22.4038C45.5166 22.3545 45.5043 22.3113 45.4981 22.262H45.4919Z" fill="white"/>
<path d="M57.5958 31.8613C57.2794 31.8613 57.0002 31.7814 56.7579 31.6216C56.5157 31.4601 56.3262 31.2328 56.1895 30.9395C56.0527 30.6446 55.9844 30.2961 55.9844 29.8941C55.9844 29.4954 56.0527 29.1493 56.1895 28.8561C56.3262 28.5628 56.5166 28.3362 56.7604 28.1764C57.0043 28.0165 57.286 27.9367 57.6056 27.9367C57.8528 27.9367 58.048 27.9778 58.1914 28.0602C58.3364 28.141 58.4467 28.2333 58.5226 28.3371C58.6 28.4392 58.6601 28.5232 58.7029 28.5891H58.7524V26.7207H59.3357V31.7822H58.7721V31.199H58.7029C58.6601 31.2682 58.5992 31.3555 58.5201 31.461C58.441 31.5647 58.3281 31.6579 58.1815 31.7402C58.0349 31.8209 57.8396 31.8613 57.5958 31.8613ZM57.6749 31.3374C57.9088 31.3374 58.1065 31.2765 58.268 31.1545C58.4294 31.0309 58.5522 30.8604 58.6363 30.6429C58.7202 30.4237 58.7623 30.1709 58.7623 29.8841C58.7623 29.6007 58.7211 29.3528 58.6387 29.1402C58.5563 28.926 58.4344 28.7597 58.2729 28.641C58.1114 28.5208 57.9121 28.4606 57.6749 28.4606C57.4277 28.4606 57.2218 28.5241 57.057 28.6509C56.8939 28.7761 56.7711 28.9467 56.6887 29.1625C56.608 29.3767 56.5676 29.6173 56.5676 29.8841C56.5676 30.1544 56.6088 30.3999 56.6912 30.6207C56.7752 30.8398 56.8988 31.0145 57.0619 31.1446C57.2267 31.2731 57.431 31.3374 57.6749 31.3374Z" fill="white"/>
<path d="M62.0781 31.8612C61.7123 31.8612 61.3969 31.7805 61.1316 31.619C60.8679 31.4558 60.6645 31.2284 60.5211 30.9368C60.3795 30.6436 60.3086 30.3025 60.3086 29.9137C60.3086 29.5248 60.3795 29.1822 60.5211 28.8856C60.6645 28.5873 60.8638 28.355 61.1193 28.1886C61.3763 28.0205 61.6761 27.9365 62.0188 27.9365C62.2166 27.9365 62.4118 27.9694 62.6045 28.0354C62.7973 28.1013 62.9728 28.2083 63.1309 28.3566C63.2891 28.5033 63.4152 28.6977 63.5092 28.9399C63.603 29.1822 63.65 29.4803 63.65 29.8346V30.0817H60.7237V29.5776H63.0568C63.0568 29.3634 63.014 29.1722 62.9283 29.0042C62.8443 28.8361 62.724 28.7035 62.5675 28.6063C62.4126 28.509 62.2297 28.4604 62.0188 28.4604C61.7865 28.4604 61.5855 28.5181 61.4158 28.6335C61.2477 28.7472 61.1184 28.8954 61.0278 29.0783C60.9371 29.2612 60.8919 29.4572 60.8919 29.6665V30.0026C60.8919 30.2893 60.9412 30.5323 61.0402 30.7318C61.1407 30.9294 61.2799 31.0802 61.4578 31.184C61.6358 31.2861 61.8425 31.3373 62.0781 31.3373C62.2314 31.3373 62.3697 31.3158 62.4934 31.273C62.6186 31.2284 62.7265 31.1626 62.8172 31.0753C62.9078 30.9863 62.9778 30.8758 63.0272 30.7441L63.5907 30.9022C63.5313 31.0934 63.4316 31.2614 63.2917 31.4065C63.1516 31.5498 62.9785 31.6618 62.7726 31.7425C62.5667 31.8216 62.3352 31.8612 62.0781 31.8612Z" fill="white"/>
<path d="M65.1186 26.7207V31.7822H64.5354V26.7207H65.1186Z" fill="white"/>
<path d="M66.185 31.7822V27.9861H66.7682V31.7822H66.185ZM66.4816 27.3534C66.3679 27.3534 66.2699 27.3147 66.1875 27.2372C66.1067 27.1598 66.0664 27.0667 66.0664 26.958C66.0664 26.8493 66.1067 26.7561 66.1875 26.6787C66.2699 26.6013 66.3679 26.5625 66.4816 26.5625C66.5953 26.5625 66.6925 26.6013 66.7732 26.6787C66.8556 26.7561 66.8968 26.8493 66.8968 26.958C66.8968 27.0667 66.8556 27.1598 66.7732 27.2372C66.6925 27.3147 66.5953 27.3534 66.4816 27.3534Z" fill="white"/>
<path d="M70.9436 27.9863L69.5399 31.7825H68.9467L67.543 27.9863H68.1756L69.2236 31.0114H69.263L70.311 27.9863H70.9436Z" fill="white"/>
<path d="M73.168 31.8612C72.8022 31.8612 72.4867 31.7805 72.2214 31.619C71.9578 31.4558 71.7543 31.2284 71.611 30.9368C71.4692 30.6436 71.3984 30.3025 71.3984 29.9137C71.3984 29.5248 71.4692 29.1822 71.611 28.8856C71.7543 28.5873 71.9537 28.355 72.209 28.1886C72.466 28.0205 72.7659 27.9365 73.1087 27.9365C73.3064 27.9365 73.5016 27.9694 73.6944 28.0354C73.8872 28.1013 74.0626 28.2083 74.2208 28.3566C74.379 28.5033 74.505 28.6977 74.5989 28.9399C74.6929 29.1822 74.7398 29.4803 74.7398 29.8346V30.0817H71.8136V29.5776H74.1466C74.1466 29.3634 74.1038 29.1722 74.0182 29.0042C73.9341 28.8361 73.8139 28.7035 73.6573 28.6063C73.5024 28.509 73.3195 28.4604 73.1087 28.4604C72.8763 28.4604 72.6753 28.5181 72.5056 28.6335C72.3376 28.7472 72.2083 28.8954 72.1176 29.0783C72.027 29.2612 71.9817 29.4572 71.9817 29.6665V30.0026C71.9817 30.2893 72.0311 30.5323 72.13 30.7318C72.2304 30.9294 72.3697 31.0802 72.5477 31.184C72.7256 31.2861 72.9323 31.3373 73.168 31.3373C73.3212 31.3373 73.4596 31.3158 73.5832 31.273C73.7084 31.2284 73.8163 31.1626 73.9069 31.0753C73.9975 30.9863 74.0675 30.8758 74.117 30.7441L74.6805 30.9022C74.6212 31.0934 74.5215 31.2614 74.3814 31.4065C74.2414 31.5498 74.0684 31.6618 73.8625 31.7425C73.6565 31.8216 73.425 31.8612 73.168 31.8612Z" fill="white"/>
<path d="M75.6287 31.7822V27.986H76.1923V28.5595H76.2318C76.301 28.3716 76.4262 28.2192 76.6074 28.1023C76.7887 27.9853 76.993 27.9268 77.2203 27.9268C77.2632 27.9268 77.3167 27.9276 77.381 27.9292C77.4453 27.9309 77.4939 27.9334 77.5268 27.9367V28.5298C77.5071 28.5249 77.4617 28.5174 77.3909 28.5076C77.3217 28.496 77.2484 28.4903 77.1709 28.4903C76.9864 28.4903 76.8216 28.529 76.6766 28.6064C76.5333 28.6822 76.4196 28.7876 76.3356 28.9227C76.2532 29.0563 76.212 29.2087 76.212 29.38V31.7822H75.6287Z" fill="white"/>
<path d="M78.7078 33.2061C78.6087 33.2061 78.5205 33.1978 78.4433 33.1814C78.3652 33.1665 78.3123 33.1517 78.282 33.1369L78.4307 32.6228C78.5726 32.6591 78.6977 32.6723 78.806 32.6623C78.9152 32.6524 79.0117 32.6039 79.0957 32.5166C79.1814 32.4308 79.2595 32.2916 79.33 32.0989L79.4392 31.8023L78.0352 27.9863H78.6675L79.7154 31.0114H79.7549L80.8028 27.9863H81.436L79.8246 32.3361C79.7524 32.5322 79.6625 32.6945 79.555 32.823C79.4484 32.9531 79.3233 33.0495 79.1822 33.1122C79.042 33.1747 78.8833 33.2061 78.7078 33.2061Z" fill="white"/>
<path d="M57.7422 40.1792V35.1177H58.3255V36.9861H58.3749C58.4178 36.9202 58.4771 36.8361 58.5529 36.734C58.6303 36.6302 58.7407 36.538 58.8841 36.4572C59.0291 36.3748 59.2252 36.3337 59.4723 36.3337C59.7919 36.3337 60.0737 36.4135 60.3175 36.5734C60.5614 36.7332 60.7517 36.9597 60.8885 37.2531C61.0252 37.5463 61.0935 37.8923 61.0935 38.291C61.0935 38.6931 61.0252 39.0416 60.8885 39.3365C60.7517 39.6298 60.5621 39.8571 60.32 40.0186C60.0778 40.1784 59.7985 40.2583 59.4822 40.2583C59.2383 40.2583 59.043 40.2179 58.8964 40.1372C58.7498 40.0548 58.6369 39.9617 58.5578 39.8579C58.4787 39.7525 58.4178 39.6651 58.3749 39.5959H58.3058V40.1792H57.7422ZM58.3157 38.2811C58.3157 38.5679 58.3576 38.8207 58.4417 39.0399C58.5257 39.2574 58.6484 39.4279 58.8099 39.5515C58.9714 39.6734 59.1691 39.7344 59.4031 39.7344C59.6469 39.7344 59.8504 39.6701 60.0136 39.5416C60.1783 39.4115 60.3018 39.2368 60.3842 39.0176C60.4683 38.7969 60.5102 38.5513 60.5102 38.2811C60.5102 38.0143 60.4691 37.7737 60.3867 37.5595C60.3059 37.3437 60.1833 37.1731 60.0184 37.0479C59.8554 36.921 59.6502 36.8576 59.4031 36.8576C59.1658 36.8576 58.9664 36.9178 58.805 37.038C58.6435 37.1567 58.5216 37.323 58.4392 37.5372C58.3568 37.7498 58.3157 37.9977 58.3157 38.2811Z" fill="white"/>
<path d="M63.5782 40.2586C63.2124 40.2586 62.8969 40.1779 62.6316 40.0165C62.368 39.8533 62.1645 39.6259 62.0211 39.3343C61.8795 39.041 61.8086 38.7 61.8086 38.3112C61.8086 37.9223 61.8795 37.5796 62.0211 37.283C62.1645 36.9848 62.3639 36.7525 62.6193 36.5861C62.8763 36.418 63.1761 36.334 63.5188 36.334C63.7166 36.334 63.9118 36.3669 64.1046 36.4328C64.2974 36.4987 64.4728 36.6058 64.631 36.7541C64.7892 36.9008 64.9153 37.0952 65.0092 37.3374C65.103 37.5796 65.1501 37.8778 65.1501 38.2321V38.4792H62.2238V37.975H64.5569C64.5569 37.7608 64.5141 37.5697 64.4283 37.4017C64.3444 37.2336 64.224 37.101 64.0675 37.0037C63.9127 36.9065 63.7298 36.8579 63.5188 36.8579C63.2866 36.8579 63.0855 36.9156 62.9158 37.0309C62.7478 37.1446 62.6184 37.2929 62.5278 37.4757C62.4372 37.6586 62.3919 37.8547 62.3919 38.064V38.4001C62.3919 38.6868 62.4413 38.9298 62.5402 39.1292C62.6407 39.3269 62.7799 39.4777 62.9578 39.5815C63.1358 39.6836 63.3426 39.7347 63.5782 39.7347C63.7314 39.7347 63.8698 39.7132 63.9934 39.6704C64.1186 39.6259 64.2265 39.5601 64.3171 39.4727C64.4077 39.3837 64.4778 39.2733 64.5272 39.1416L65.0907 39.2997C65.0314 39.4909 64.9317 39.6589 64.7917 39.8039C64.6516 39.9473 64.4786 40.0593 64.2726 40.14C64.0667 40.2191 63.8352 40.2586 63.5782 40.2586Z" fill="white"/>
<path d="M66.2973 41.603C66.1984 41.603 66.1102 41.5948 66.0328 41.5783C65.9553 41.5635 65.9018 41.5487 65.8721 41.5338L66.0204 41.0198C66.1622 41.056 66.2874 41.0692 66.3961 41.0593C66.5048 41.0494 66.6012 41.0009 66.6852 40.9135C66.771 40.8278 66.8492 40.6886 66.92 40.4959L67.0287 40.1993L65.625 36.3833H66.2577L67.3056 39.4084H67.3451L68.393 36.3833H69.0257L67.4143 40.7331C67.3419 40.9292 67.252 41.0915 67.145 41.22C67.0378 41.3501 66.9135 41.4465 66.7718 41.5092C66.6317 41.5717 66.4735 41.603 66.2973 41.603Z" fill="white"/>
<path d="M71.2006 40.2586C70.8578 40.2586 70.5572 40.1771 70.2985 40.0139C70.0415 39.8509 69.8404 39.6226 69.6955 39.3294C69.5521 39.0361 69.4805 38.6934 69.4805 38.3013C69.4805 37.9058 69.5521 37.5606 69.6955 37.2657C69.8404 36.9707 70.0415 36.7417 70.2985 36.5787C70.5572 36.4155 70.8578 36.334 71.2006 36.334C71.5433 36.334 71.8432 36.4155 72.1002 36.5787C72.3589 36.7417 72.5599 36.9707 72.7033 37.2657C72.8482 37.5606 72.9208 37.9058 72.9208 38.3013C72.9208 38.6934 72.8482 39.0361 72.7033 39.3294C72.5599 39.6226 72.3589 39.8509 72.1002 40.0139C71.8432 40.1771 71.5433 40.2586 71.2006 40.2586ZM71.2006 39.7347C71.4609 39.7347 71.6751 39.668 71.8432 39.5345C72.0112 39.401 72.1356 39.2255 72.2163 39.008C72.2971 38.7906 72.3375 38.555 72.3375 38.3013C72.3375 38.0475 72.2971 37.811 72.2163 37.592C72.1356 37.3728 72.0112 37.1957 71.8432 37.0606C71.6751 36.9255 71.4609 36.8579 71.2006 36.8579C70.9403 36.8579 70.7261 36.9255 70.558 37.0606C70.39 37.1957 70.2656 37.3728 70.1848 37.592C70.1041 37.811 70.0637 38.0475 70.0637 38.3013C70.0637 38.555 70.1041 38.7906 70.1848 39.008C70.2656 39.2255 70.39 39.401 70.558 39.5345C70.7261 39.668 70.9403 39.7347 71.2006 39.7347Z" fill="white"/>
<path d="M74.3958 37.8959V40.1795H73.8125V36.3834H74.376V36.9765H74.4255C74.5144 36.7837 74.6495 36.6289 74.8308 36.5119C75.012 36.3933 75.246 36.334 75.5326 36.334C75.7897 36.334 76.0146 36.3867 76.2074 36.4921C76.4002 36.596 76.5501 36.7541 76.6572 36.9666C76.7643 37.1776 76.8178 37.4445 76.8178 37.7674V40.1795H76.2346V37.8069C76.2346 37.5087 76.1571 37.2764 76.0022 37.11C75.8474 36.9419 75.6348 36.8579 75.3646 36.8579C75.1785 36.8579 75.012 36.8983 74.8654 36.9791C74.7204 37.0597 74.6059 37.1776 74.5219 37.3324C74.4378 37.4873 74.3958 37.6752 74.3958 37.8959Z" fill="white"/>
<path d="M79.3144 40.2583C78.9979 40.2583 78.7191 40.1784 78.4764 40.0186C78.2346 39.8571 78.0448 39.6298 77.9079 39.3365C77.7715 39.0416 77.7031 38.6931 77.7031 38.291C77.7031 37.8923 77.7715 37.5463 77.9079 37.2531C78.0448 36.9597 78.2354 36.7332 78.4789 36.5734C78.7233 36.4135 79.0046 36.3337 79.3245 36.3337C79.5714 36.3337 79.7671 36.3748 79.9098 36.4572C80.0551 36.538 80.1651 36.6302 80.2415 36.734C80.3187 36.8361 80.3792 36.9202 80.422 36.9861H80.4707V35.1177H81.0543V40.1792H80.4909V39.5959H80.422C80.3792 39.6651 80.3179 39.7525 80.239 39.8579C80.16 39.9617 80.0467 40.0548 79.9006 40.1372C79.7536 40.2179 79.558 40.2583 79.3144 40.2583ZM79.3934 39.7344C79.6277 39.7344 79.825 39.6734 79.9871 39.5515C80.1483 39.4279 80.2709 39.2574 80.3549 39.0399C80.4388 38.8207 80.4808 38.5679 80.4808 38.2811C80.4808 37.9977 80.4397 37.7498 80.3574 37.5372C80.2751 37.323 80.1533 37.1567 79.9913 37.038C79.83 36.9178 79.631 36.8576 79.3934 36.8576C79.1465 36.8576 78.9408 36.921 78.7754 37.0479C78.6124 37.1731 78.4899 37.3437 78.4076 37.5595C78.327 37.7737 78.2866 38.0143 78.2866 38.2811C78.2866 38.5513 78.3278 38.7969 78.4101 39.0176C78.4941 39.2368 78.6175 39.4115 78.7804 39.5416C78.9458 39.6701 79.1499 39.7344 79.3934 39.7344Z" fill="white"/>
<path d="M41.4219 48.6556C41.0561 48.6556 40.7406 48.5749 40.4753 48.4134C40.2117 48.2503 40.0082 48.0229 39.8649 47.7312C39.7231 47.438 39.6523 47.0969 39.6523 46.7081C39.6523 46.3193 39.7231 45.9766 39.8649 45.68C40.0082 45.3817 40.2076 45.1495 40.4629 44.983C40.72 44.8149 41.0198 44.731 41.3626 44.731C41.5603 44.731 41.7555 44.7639 41.9483 44.8298C42.1411 44.8957 42.3166 45.0028 42.4747 45.1511C42.6329 45.2978 42.7589 45.4922 42.8528 45.7343C42.9468 45.9766 42.9937 46.2748 42.9937 46.629V46.8762H40.0675V46.372H42.4006C42.4006 46.1578 42.3577 45.9667 42.2721 45.7986C42.188 45.6305 42.0678 45.4979 41.9112 45.4007C41.7563 45.3035 41.5734 45.2549 41.3626 45.2549C41.1302 45.2549 40.9292 45.3125 40.7595 45.4279C40.5915 45.5416 40.4622 45.6898 40.3715 45.8727C40.2809 46.0556 40.2356 46.2517 40.2356 46.4609V46.7971C40.2356 47.0837 40.285 47.3268 40.3839 47.5262C40.4843 47.7239 40.6236 47.8747 40.8016 47.9785C40.9795 48.0806 41.1862 48.1317 41.4219 48.1317C41.5751 48.1317 41.7135 48.1102 41.8371 48.0674C41.9623 48.0229 42.0702 47.957 42.1608 47.8697C42.2514 47.7807 42.3214 47.6703 42.3709 47.5385L42.9344 47.6966C42.8751 47.8879 42.7754 48.0559 42.6353 48.2009C42.4953 48.3442 42.3223 48.4563 42.1164 48.5369C41.9104 48.616 41.6789 48.6556 41.4219 48.6556Z" fill="white"/>
<path d="M44.2152 44.7803L45.1246 46.3324L46.0341 44.7803H46.7064L45.4805 46.6784L46.7064 48.5764H46.0341L45.1246 47.1035L44.2152 48.5764H43.543L44.749 46.6784L43.543 44.7803H44.2152Z" fill="white"/>
<path d="M47.5391 50.0001V44.7803H48.1026V45.3834H48.1718C48.2146 45.3175 48.2739 45.2334 48.3497 45.1313C48.4271 45.0275 48.5376 44.9353 48.6809 44.8545C48.8258 44.7721 49.0219 44.731 49.2691 44.731C49.5887 44.731 49.8704 44.8108 50.1143 44.9707C50.3581 45.1305 50.5485 45.357 50.6852 45.6504C50.822 45.9436 50.8904 46.2896 50.8904 46.6883C50.8904 47.0904 50.822 47.4389 50.6852 47.7338C50.5485 48.0271 50.359 48.2544 50.1168 48.4159C49.8745 48.5757 49.5953 48.6556 49.2789 48.6556C49.0351 48.6556 48.8399 48.6152 48.6932 48.5345C48.5466 48.4521 48.4338 48.359 48.3547 48.2552C48.2756 48.1498 48.2146 48.0624 48.1718 47.9932H48.1223V50.0001H47.5391ZM48.1124 46.6784C48.1124 46.9652 48.1545 47.218 48.2385 47.4372C48.3225 47.6547 48.4453 47.8252 48.6068 47.9488C48.7682 48.0707 48.9659 48.1317 49.1999 48.1317C49.4437 48.1317 49.6472 48.0674 49.8103 47.9389C49.9751 47.8088 50.0987 47.6341 50.181 47.4149C50.2651 47.1942 50.3071 46.9486 50.3071 46.6784C50.3071 46.4116 50.2659 46.171 50.1836 45.9568C50.1028 45.741 49.98 45.5704 49.8153 45.4452C49.6522 45.3183 49.4471 45.2549 49.1999 45.2549C48.9626 45.2549 48.7633 45.3151 48.6018 45.4353C48.4403 45.554 48.3184 45.7203 48.236 45.9345C48.1536 46.147 48.1124 46.395 48.1124 46.6784Z" fill="white"/>
<path d="M53.3711 48.6556C53.0053 48.6556 52.6898 48.5749 52.4246 48.4134C52.1609 48.2503 51.9574 48.0229 51.8141 47.7312C51.6724 47.438 51.6016 47.0969 51.6016 46.7081C51.6016 46.3193 51.6724 45.9766 51.8141 45.68C51.9574 45.3817 52.1568 45.1495 52.4121 44.983C52.6692 44.8149 52.969 44.731 53.3118 44.731C53.5095 44.731 53.7047 44.7639 53.8975 44.8298C54.0903 44.8957 54.2658 45.0028 54.4239 45.1511C54.5821 45.2978 54.7082 45.4922 54.802 45.7343C54.896 45.9766 54.9429 46.2748 54.9429 46.629V46.8762H52.0167V46.372H54.3498C54.3498 46.1578 54.3069 45.9667 54.2213 45.7986C54.1372 45.6305 54.017 45.4979 53.8605 45.4007C53.7055 45.3035 53.5227 45.2549 53.3118 45.2549C53.0795 45.2549 52.8784 45.3125 52.7087 45.4279C52.5407 45.5416 52.4114 45.6898 52.3207 45.8727C52.2301 46.0556 52.1848 46.2517 52.1848 46.4609V46.7971C52.1848 47.0837 52.2342 47.3268 52.3331 47.5262C52.4335 47.7239 52.5728 47.8747 52.7508 47.9785C52.9287 48.0806 53.1355 48.1317 53.3711 48.1317C53.5243 48.1317 53.6627 48.1102 53.7863 48.0674C53.9115 48.0229 54.0194 47.957 54.11 47.8697C54.2006 47.7807 54.2707 47.6703 54.3201 47.5385L54.8837 47.6966C54.8243 47.8879 54.7246 48.0559 54.5846 48.2009C54.4445 48.3442 54.2715 48.4563 54.0656 48.5369C53.8596 48.616 53.6281 48.6556 53.3711 48.6556Z" fill="white"/>
<path d="M57.3725 48.6556C57.0166 48.6556 56.7101 48.5715 56.4531 48.4035C56.1961 48.2355 55.9983 48.004 55.8599 47.7091C55.7215 47.4141 55.6523 47.0772 55.6523 46.6982C55.6523 46.3126 55.7232 45.9725 55.8649 45.6775C56.0082 45.3809 56.2076 45.1495 56.463 44.983C56.72 44.8149 57.0199 44.731 57.3626 44.731C57.6295 44.731 57.87 44.7803 58.0842 44.8792C58.2984 44.9781 58.4739 45.1165 58.6106 45.2944C58.7474 45.4723 58.8322 45.68 58.8652 45.9172H58.282C58.2375 45.7442 58.1386 45.591 57.9854 45.4576C57.8338 45.3224 57.6295 45.2549 57.3725 45.2549C57.1451 45.2549 56.9457 45.3142 56.7744 45.4329C56.6047 45.5498 56.4721 45.7154 56.3765 45.9296C56.2825 46.1422 56.2356 46.3917 56.2356 46.6784C56.2356 46.9717 56.2817 47.2271 56.374 47.4446C56.468 47.6621 56.5997 47.831 56.7694 47.9513C56.9408 48.0715 57.1418 48.1317 57.3725 48.1317C57.5241 48.1317 57.6616 48.1053 57.7852 48.0526C57.9088 47.9999 58.0134 47.924 58.0991 47.8252C58.1847 47.7264 58.2457 47.6077 58.282 47.4693H58.8652C58.8322 47.6934 58.7507 47.8952 58.6206 48.0749C58.4921 48.2528 58.3215 48.3945 58.109 48.4999C57.8981 48.6037 57.6525 48.6556 57.3725 48.6556Z" fill="white"/>
<path d="M61.3696 44.7801V45.2744H59.4023V44.7801H61.3696ZM59.9757 43.8706H60.559V47.4888C60.559 47.6536 60.5828 47.7772 60.6306 47.8596C60.68 47.9403 60.7427 47.9947 60.8184 48.0226C60.8959 48.049 60.9775 48.0622 61.0631 48.0622C61.1274 48.0622 61.1801 48.0589 61.2213 48.0524C61.2625 48.0441 61.2955 48.0375 61.3202 48.0326L61.4388 48.5565C61.3993 48.5713 61.3441 48.5862 61.2732 48.601C61.2023 48.6175 61.1126 48.6257 61.0038 48.6257C60.8391 48.6257 60.6776 48.5903 60.5194 48.5194C60.3629 48.4486 60.2327 48.3406 60.1289 48.1957C60.0268 48.0507 59.9757 47.8678 59.9757 47.647V43.8706Z" fill="white"/>
<path d="M63.3653 48.6655C63.1248 48.6655 62.9065 48.6202 62.7104 48.5296C62.5144 48.4373 62.3587 48.3047 62.2433 48.1317C62.128 47.957 62.0703 47.7461 62.0703 47.499C62.0703 47.2815 62.1131 47.1052 62.1988 46.97C62.2845 46.8333 62.399 46.7262 62.5424 46.6488C62.6857 46.5714 62.8439 46.5137 63.0168 46.4758C63.1915 46.4362 63.367 46.4049 63.5433 46.3819C63.774 46.3522 63.961 46.3299 64.1043 46.3152C64.2493 46.2987 64.3548 46.2715 64.4207 46.2336C64.4882 46.1957 64.522 46.1297 64.522 46.0359V46.0161C64.522 45.7723 64.4553 45.5828 64.3218 45.4477C64.19 45.3125 63.9898 45.245 63.7213 45.245C63.4428 45.245 63.2245 45.306 63.0663 45.4279C62.9081 45.5498 62.7969 45.68 62.7327 45.8184L62.1791 45.6206C62.2779 45.39 62.4097 45.2104 62.5745 45.0819C62.7409 44.9517 62.9221 44.8611 63.1182 44.8101C63.3159 44.7573 63.5103 44.731 63.7015 44.731C63.8234 44.731 63.9634 44.7457 64.1216 44.7755C64.2814 44.8034 64.4355 44.862 64.5838 44.9509C64.7337 45.0399 64.8581 45.1742 64.957 45.3538C65.0558 45.5333 65.1053 45.7739 65.1053 46.0754V48.5765H64.522V48.0624H64.4924C64.4528 48.1448 64.3869 48.233 64.2946 48.3269C64.2023 48.4208 64.0796 48.5008 63.9264 48.5667C63.7732 48.6325 63.5862 48.6655 63.3653 48.6655ZM63.4543 48.1415C63.685 48.1415 63.8794 48.0963 64.0376 48.0056C64.1974 47.915 64.3177 47.798 64.3984 47.6547C64.4808 47.5113 64.522 47.3606 64.522 47.2024V46.6686C64.4972 46.6982 64.4429 46.7254 64.3589 46.7501C64.2765 46.7732 64.1809 46.7938 64.0722 46.8119C63.9651 46.8284 63.8605 46.8432 63.7583 46.8563C63.6578 46.8679 63.5763 46.8778 63.5136 46.8861C63.362 46.9058 63.2204 46.938 63.0885 46.9825C62.9584 47.0253 62.8529 47.0904 62.7722 47.1777C62.6931 47.2634 62.6536 47.3803 62.6536 47.5286C62.6536 47.7312 62.7286 47.8845 62.8785 47.9883C63.03 48.0905 63.222 48.1415 63.4543 48.1415Z" fill="white"/>
<path d="M67.8188 44.7801V45.2744H65.8516V44.7801H67.8188ZM66.425 43.8706H67.0083V47.4888C67.0083 47.6536 67.0321 47.7772 67.0799 47.8596C67.1294 47.9403 67.1919 47.9947 67.2677 48.0226C67.3452 48.049 67.4267 48.0622 67.5124 48.0622C67.5767 48.0622 67.6294 48.0589 67.6705 48.0524C67.7118 48.0441 67.7447 48.0375 67.7695 48.0326L67.888 48.5565C67.8486 48.5713 67.7933 48.5862 67.7225 48.601C67.6517 48.6175 67.5618 48.6257 67.4531 48.6257C67.2883 48.6257 67.1268 48.5903 66.9687 48.5194C66.8122 48.4486 66.682 48.3406 66.5782 48.1957C66.4761 48.0507 66.425 47.8678 66.425 47.647V43.8706Z" fill="white"/>
<path d="M68.6968 48.5762V44.78H69.28V48.5762H68.6968ZM68.9934 44.1474C68.8797 44.1474 68.7816 44.1087 68.6992 44.0312C68.6185 43.9537 68.5781 43.8607 68.5781 43.752C68.5781 43.6432 68.6185 43.5501 68.6992 43.4727C68.7816 43.3952 68.8797 43.3564 68.9934 43.3564C69.1071 43.3564 69.2042 43.3952 69.285 43.4727C69.3674 43.5501 69.4085 43.6432 69.4085 43.752C69.4085 43.8607 69.3674 43.9537 69.285 44.0312C69.2042 44.1087 69.1071 44.1474 68.9934 44.1474Z" fill="white"/>
<path d="M71.8881 48.6556C71.5453 48.6556 71.2446 48.5741 70.986 48.4109C70.729 48.2478 70.528 48.0196 70.3829 47.7264C70.2396 47.4331 70.168 47.0904 70.168 46.6982C70.168 46.3028 70.2396 45.9576 70.3829 45.6627C70.528 45.3677 70.729 45.1387 70.986 44.9756C71.2446 44.8125 71.5453 44.731 71.8881 44.731C72.2308 44.731 72.5307 44.8125 72.7877 44.9756C73.0463 45.1387 73.2474 45.3677 73.3907 45.6627C73.5357 45.9576 73.6082 46.3028 73.6082 46.6982C73.6082 47.0904 73.5357 47.4331 73.3907 47.7264C73.2474 48.0196 73.0463 48.2478 72.7877 48.4109C72.5307 48.5741 72.2308 48.6556 71.8881 48.6556ZM71.8881 48.1317C72.1484 48.1317 72.3626 48.0649 72.5307 47.9314C72.6987 47.798 72.8231 47.6225 72.9038 47.405C72.9846 47.1875 73.0249 46.952 73.0249 46.6982C73.0249 46.4445 72.9846 46.208 72.9038 45.9889C72.8231 45.7698 72.6987 45.5927 72.5307 45.4576C72.3626 45.3224 72.1484 45.2549 71.8881 45.2549C71.6277 45.2549 71.4136 45.3224 71.2455 45.4576C71.0775 45.5927 70.953 45.7698 70.8723 45.9889C70.7915 46.208 70.7512 46.4445 70.7512 46.6982C70.7512 46.952 70.7915 47.1875 70.8723 47.405C70.953 47.6225 71.0775 47.798 71.2455 47.9314C71.4136 48.0649 71.6277 48.1317 71.8881 48.1317Z" fill="white"/>
<path d="M75.0833 46.2929V48.5765H74.5V44.7803H75.0635V45.3735H75.1129C75.2019 45.1807 75.337 45.0259 75.5182 44.9089C75.6995 44.7902 75.9335 44.731 76.2201 44.731C76.4772 44.731 76.7021 44.7837 76.8949 44.8891C77.0877 44.9929 77.2375 45.1511 77.3447 45.3636C77.4518 45.5745 77.5053 45.8415 77.5053 46.1643V48.5765H76.9221V46.2039C76.9221 45.9057 76.8446 45.6734 76.6897 45.507C76.5349 45.3389 76.3223 45.2549 76.0521 45.2549C75.8659 45.2549 75.6995 45.2952 75.5528 45.376C75.4079 45.4567 75.2934 45.5745 75.2093 45.7294C75.1253 45.8843 75.0833 46.0721 75.0833 46.2929Z" fill="white"/>
<path d="M81.2599 45.6305L80.7359 45.7788C80.7023 45.6915 80.6544 45.6067 80.5898 45.5243C80.5276 45.4403 80.4412 45.3711 80.3328 45.3167C80.2237 45.2623 80.0851 45.2351 79.9155 45.2351C79.6829 45.2351 79.4889 45.2887 79.3344 45.3958C79.1808 45.5012 79.1043 45.6355 79.1043 45.7986C79.1043 45.9436 79.1572 46.0581 79.263 46.1422C79.368 46.2261 79.5326 46.2962 79.7568 46.3522L80.3202 46.4907C80.6595 46.573 80.9131 46.6991 81.0793 46.8688C81.2456 47.0368 81.3287 47.2535 81.3287 47.5187C81.3287 47.7362 81.2666 47.9307 81.1406 48.102C81.0172 48.2734 80.8442 48.4085 80.6217 48.5073C80.3992 48.6061 80.1405 48.6556 79.8458 48.6556C79.4587 48.6556 79.1379 48.5715 78.8843 48.4035C78.6307 48.2355 78.4704 47.99 78.4023 47.667L78.9565 47.5286C79.0086 47.7329 79.1085 47.8862 79.2555 47.9883C79.4033 48.0905 79.5973 48.1415 79.8357 48.1415C80.1078 48.1415 80.3236 48.0838 80.484 47.9685C80.6452 47.8516 80.7258 47.7115 80.7258 47.5484C80.7258 47.4166 80.6796 47.3062 80.5873 47.2173C80.4949 47.1266 80.353 47.0591 80.1624 47.0146L79.5292 46.8663C79.1816 46.7839 78.9263 46.6562 78.7634 46.4832C78.6022 46.3085 78.5216 46.0903 78.5216 45.8283C78.5216 45.6141 78.5812 45.4246 78.7013 45.2598C78.8239 45.0951 78.9893 44.9657 79.1984 44.8718C79.4092 44.7779 79.6485 44.731 79.9155 44.731C80.2909 44.731 80.5856 44.8133 80.7997 44.9781C81.0155 45.1428 81.1692 45.3603 81.2599 45.6305Z" fill="white"/>
</g>
<defs>
<clipPath id="clip0_503_639">
<rect width="82.0312" height="50" fill="white"/>
</clipPath>
</defs>
</svg>
