<svg width="1024" height="1024" viewBox="0 0 1024 1024" fill="none" xmlns="http://www.w3.org/2000/svg">
<g clip-path="url(#clip0_597_506)">
<rect width="1024" height="1024" rx="512" fill="white"/>
<path d="M190 566.349V834H464.984C511.279 834 550.587 818.01 583.082 785.857C615.752 753.704 632 714.6 632 667.848V168H356.842C310.72 168 271.237 183.99 238.742 216.143C206.247 248.296 190 287.574 190 334.152V566.349Z" fill="#084CBB"/>
<path d="M190 -312.349V-580H464.984C511.279 -580 550.587 -564.01 583.082 -531.858C615.752 -499.705 632 -460.426 632 -413.848V86H356.842C310.72 86 271.237 70.0104 238.742 37.8572C206.247 5.87799 190 -33.5742 190 -80.1537V-312.349Z" fill="#5C94F0"/>
<path d="M1034 457.53V652H835.429C802.19 652 773.647 640.316 750.153 616.944C726.659 593.571 715 565.142 715 531.307V168H913.571C946.984 168 975.351 179.687 998.845 203.058C1022.34 226.429 1034 254.86 1034 288.696V457.355V457.53Z" fill="#0D62EC"/>
</g>
<defs>
<clipPath id="clip0_597_506">
<rect width="1024" height="1024" rx="512" fill="white"/>
</clipPath>
</defs>
</svg>
