<svg width="83" height="50" viewBox="0 0 83 50" fill="none" xmlns="http://www.w3.org/2000/svg">
<g clip-path="url(#clip0_413_3302)">
<path d="M0 40.5032V50H9.70648C11.3406 50 12.7281 49.4327 13.8752 48.2918C15.0284 47.151 15.6019 45.7635 15.6019 44.1046V26.369H5.88924C4.26122 26.369 2.86754 26.9364 1.72052 28.0772C0.573507 29.2181 0 30.6118 0 32.2644V40.5032Z" fill="#084CBB"/>
<path d="M0 9.4968V0H9.70648C11.3406 0 12.7281 0.567341 13.8752 1.70819C15.0284 2.84904 15.6019 4.24273 15.6019 5.89541V23.631H5.88924C4.26122 23.631 2.86754 23.0637 1.72052 21.9228C0.573507 20.7881 0 19.3883 0 17.7355V9.4968Z" fill="#5C94F0"/>
<path d="M29.7919 36.7994V43.6752H22.7556C21.5778 43.6752 20.5664 43.2621 19.7339 42.4358C18.9014 41.6094 18.4883 40.6042 18.4883 39.4079V26.5625H25.5245C26.7085 26.5625 27.7137 26.9757 28.5462 27.802C29.3787 28.6284 29.7919 29.6336 29.7919 30.8299V36.7932V36.7994Z" fill="#0D62EC"/>
<path d="M45.527 22.4038L45.4961 22.262C45.5023 22.3113 45.5146 22.3545 45.527 22.4038Z" fill="#084CBB"/>
<path d="M28.0412 0.314517C27.2827 0.314517 26.3145 0.912691 25.9877 1.55403L22.2383 12.0314V12.2287L25.9445 22.299L25.926 22.2558C26.1788 22.9403 27.221 23.6248 28.035 23.6248H29.7864L25.2723 11.9018L29.7247 0.30835" fill="#084CBB"/>
<path d="M20.4545 0.30835H18.7031V22.2558C18.8326 23.0328 19.4986 23.6248 20.3127 23.6248H22.064V1.67737C21.9406 0.900355 21.2684 0.30835 20.4545 0.30835Z" fill="#084CBB"/>
<path d="M33.3244 23.6248H35.0757V1.67737C34.9524 0.900355 34.2802 0.30835 33.4662 0.30835H31.7148V22.2558C31.8382 23.0328 32.5104 23.6248 33.3244 23.6248Z" fill="#084CBB"/>
<path d="M45.4916 22.262L45.5224 22.4039C45.7383 23.1069 46.6448 23.6249 47.4033 23.6249H48.9882L46.6448 13.9122C47.9768 13.3696 48.6366 12.0808 48.6366 10.0457V4.30446C48.6366 1.64043 47.354 0.314575 44.7886 0.314575H38.2148V22.2558C38.3382 23.0329 39.0104 23.6249 39.8244 23.6249H41.5757V14.2083H43.6046L45.4916 22.2558V22.262ZM45.2881 9.85451C45.2881 10.9769 44.7886 11.5442 43.7834 11.5442H41.5757V3.13278H43.7834C44.7824 3.13278 45.2881 3.70012 45.2881 4.82247V9.85451Z" fill="#084CBB"/>
<path d="M61.242 19.6967V14.7263C61.242 13.9061 61.1618 13.3449 60.9952 13.0551C60.8288 12.7652 60.6006 12.5124 60.3108 12.3089C60.0209 12.1054 59.5214 11.8156 58.8246 11.4517L55.6425 9.86068C55.2232 9.62021 54.921 9.42904 54.7298 9.2749C54.5448 9.12068 54.4523 8.83083 54.4523 8.39919V4.53263C54.4523 3.60145 54.9272 3.13894 55.8892 3.13894H56.4134C57.3939 3.13894 57.8811 3.60145 57.8811 4.53263V5.22947C57.9982 5.93865 58.5779 6.49983 59.3055 6.57999H61.242V4.30446C61.242 1.64043 59.8976 0.314575 57.2212 0.314575H55.1245C52.442 0.314575 51.1038 1.64659 51.1038 4.30446V9.07755C51.1038 9.68185 51.1716 10.1752 51.3135 10.5576C51.4553 10.9399 51.6835 11.2483 51.998 11.4826C52.3125 11.7231 52.8182 12.0129 53.5212 12.3583L56.7032 14.0171C57.1226 14.2576 57.4247 14.4488 57.6097 14.6029C57.7948 14.7571 57.8873 15.0469 57.8873 15.4786V19.4438C57.8873 20.3565 57.4432 20.8067 56.5552 20.8067H55.957C54.958 20.8067 54.4523 20.3504 54.4523 19.4438V18.1797H52.1152C51.591 18.3832 51.1963 18.8518 51.0977 19.4254C51.1223 22.2312 52.4605 23.6372 55.1184 23.6372H57.1842C59.8914 23.6372 61.242 22.3299 61.242 19.709V19.6967Z" fill="#084CBB"/>
<path d="M79.5996 23.6248H81.3879V1.67737C81.2652 0.900355 80.5926 0.30835 79.7785 0.30835H78.0273V22.4408C78.2184 23.1253 78.8473 23.631 79.5934 23.631L79.5996 23.6248Z" fill="#084CBB"/>
<path d="M67.8512 1.68348C67.7278 0.906473 67.0803 0.289795 66.2663 0.289795H64.4102V22.2558C64.5027 22.8416 64.9096 23.3226 65.4585 23.52H67.8512V1.68348Z" fill="#084CBB"/>
<path d="M74.9709 1.67732C74.8475 0.900301 74.0396 0.289795 73.2256 0.289795H71.4805V8.25107L74.9709 11.3715V1.67732Z" fill="#084CBB"/>
<path d="M74.9709 12.5924L71.4805 15.7128V22.2558C71.573 22.8415 71.9799 23.3226 72.5227 23.5199H74.9647V12.5924H74.9709Z" fill="#084CBB"/>
<path d="M71.6531 13.3695H71.4805V15.053L74.9709 12.0004L71.4805 8.94177V10.5636H71.6531V13.3695Z" fill="#084CBB"/>
<path d="M71.4714 10.5637H67.8516V13.3634H71.4714V10.5637Z" fill="#084CBB"/>
<path d="M71.6593 10.5637H71.4805V13.3634H71.6593V10.5637Z" fill="#084CBB"/>
<path d="M25.9297 1.68358C25.9481 1.64041 25.9666 1.59724 25.9852 1.55408L25.9297 1.68358Z" fill="#084CBB"/>
<path d="M57.8828 5.2232C57.8828 5.2232 57.8828 5.22321 57.8828 5.21704V6.58606H59.4923C59.4307 6.58606 59.3691 6.58606 59.3073 6.57372H57.8828V5.2232Z" fill="#084CBB"/>
<path d="M57.8828 5.22327V6.57378H59.3073C58.5859 6.49362 58.0062 5.93245 57.8828 5.22327Z" fill="#084CBB"/>
<path d="M45.4922 22.262L45.8005 23.6249H45.8129L45.5292 22.4038C45.5169 22.3545 45.5045 22.3113 45.4984 22.262H45.4922Z" fill="#084CBB"/>
<path d="M57.5958 31.8613C57.2794 31.8613 57.0002 31.7814 56.7579 31.6216C56.5157 31.4601 56.3262 31.2328 56.1895 30.9395C56.0527 30.6446 55.9844 30.2961 55.9844 29.8941C55.9844 29.4954 56.0527 29.1493 56.1895 28.8561C56.3262 28.5628 56.5166 28.3362 56.7604 28.1764C57.0043 28.0165 57.286 27.9367 57.6056 27.9367C57.8528 27.9367 58.048 27.9778 58.1914 28.0602C58.3364 28.141 58.4467 28.2333 58.5226 28.3371C58.6 28.4392 58.6601 28.5232 58.7029 28.5891H58.7524V26.7207H59.3357V31.7822H58.7721V31.199H58.7029C58.6601 31.2682 58.5992 31.3555 58.5201 31.461C58.441 31.5647 58.3281 31.6579 58.1815 31.7402C58.0349 31.8209 57.8396 31.8613 57.5958 31.8613ZM57.6749 31.3374C57.9088 31.3374 58.1065 31.2765 58.268 31.1545C58.4294 31.0309 58.5522 30.8604 58.6363 30.6429C58.7202 30.4237 58.7623 30.1709 58.7623 29.8841C58.7623 29.6007 58.7211 29.3528 58.6387 29.1402C58.5563 28.926 58.4344 28.7597 58.2729 28.641C58.1114 28.5208 57.9121 28.4606 57.6749 28.4606C57.4277 28.4606 57.2218 28.5241 57.057 28.6509C56.8939 28.7761 56.7711 28.9467 56.6887 29.1625C56.608 29.3767 56.5676 29.6173 56.5676 29.8841C56.5676 30.1544 56.6088 30.3999 56.6912 30.6207C56.7752 30.8398 56.8988 31.0145 57.0619 31.1446C57.2267 31.2731 57.431 31.3374 57.6749 31.3374Z" fill="black"/>
<path d="M62.0781 31.8613C61.7123 31.8613 61.3969 31.7806 61.1316 31.6191C60.8679 31.456 60.6645 31.2286 60.5211 30.9369C60.3795 30.6437 60.3086 30.3026 60.3086 29.9138C60.3086 29.525 60.3795 29.1823 60.5211 28.8857C60.6645 28.5874 60.8638 28.3552 61.1193 28.1887C61.3763 28.0206 61.6761 27.9366 62.0188 27.9366C62.2166 27.9366 62.4118 27.9696 62.6045 28.0355C62.7973 28.1014 62.9728 28.2085 63.1309 28.3568C63.2891 28.5034 63.4152 28.6978 63.5092 28.94C63.603 29.1823 63.65 29.4805 63.65 29.8347V30.0819H60.7237V29.5777H63.0568C63.0568 29.3635 63.014 29.1724 62.9283 29.0043C62.8443 28.8362 62.724 28.7036 62.5675 28.6064C62.4126 28.5092 62.2297 28.4605 62.0188 28.4605C61.7865 28.4605 61.5855 28.5182 61.4158 28.6336C61.2477 28.7473 61.1184 28.8955 61.0278 29.0784C60.9371 29.2613 60.8919 29.4574 60.8919 29.6666V30.0028C60.8919 30.2894 60.9412 30.5324 61.0402 30.7319C61.1407 30.9295 61.2799 31.0804 61.4578 31.1841C61.6358 31.2863 61.8425 31.3374 62.0781 31.3374C62.2314 31.3374 62.3697 31.3159 62.4934 31.2731C62.6186 31.2286 62.7265 31.1627 62.8172 31.0754C62.9078 30.9864 62.9778 30.876 63.0272 30.7442L63.5907 30.9023C63.5313 31.0935 63.4316 31.2616 63.2917 31.4066C63.1516 31.5499 62.9785 31.6619 62.7726 31.7426C62.5667 31.8217 62.3352 31.8613 62.0781 31.8613Z" fill="black"/>
<path d="M65.1184 26.7207V31.7822H64.5352V26.7207H65.1184Z" fill="black"/>
<path d="M66.185 31.7822V27.9861H66.7682V31.7822H66.185ZM66.4816 27.3534C66.3679 27.3534 66.2699 27.3147 66.1875 27.2372C66.1067 27.1598 66.0664 27.0667 66.0664 26.958C66.0664 26.8493 66.1067 26.7561 66.1875 26.6787C66.2699 26.6013 66.3679 26.5625 66.4816 26.5625C66.5953 26.5625 66.6925 26.6013 66.7732 26.6787C66.8556 26.7561 66.8968 26.8493 66.8968 26.958C66.8968 27.0667 66.8556 27.1598 66.7732 27.2372C66.6925 27.3147 66.5953 27.3534 66.4816 27.3534Z" fill="black"/>
<path d="M70.9436 27.9861L69.5399 31.7822H68.9467L67.543 27.9861H68.1756L69.2236 31.0111H69.263L70.311 27.9861H70.9436Z" fill="black"/>
<path d="M73.168 31.8613C72.8022 31.8613 72.4867 31.7806 72.2214 31.6191C71.9578 31.456 71.7543 31.2286 71.611 30.9369C71.4692 30.6437 71.3984 30.3026 71.3984 29.9138C71.3984 29.525 71.4692 29.1823 71.611 28.8857C71.7543 28.5874 71.9537 28.3552 72.209 28.1887C72.466 28.0206 72.7659 27.9366 73.1087 27.9366C73.3064 27.9366 73.5016 27.9696 73.6944 28.0355C73.8872 28.1014 74.0626 28.2085 74.2208 28.3568C74.379 28.5034 74.505 28.6978 74.5989 28.94C74.6929 29.1823 74.7398 29.4805 74.7398 29.8347V30.0819H71.8136V29.5777H74.1466C74.1466 29.3635 74.1038 29.1724 74.0182 29.0043C73.9341 28.8362 73.8139 28.7036 73.6573 28.6064C73.5024 28.5092 73.3195 28.4605 73.1087 28.4605C72.8763 28.4605 72.6753 28.5182 72.5056 28.6336C72.3376 28.7473 72.2083 28.8955 72.1176 29.0784C72.027 29.2613 71.9817 29.4574 71.9817 29.6666V30.0028C71.9817 30.2894 72.0311 30.5324 72.13 30.7319C72.2304 30.9295 72.3697 31.0804 72.5477 31.1841C72.7256 31.2863 72.9323 31.3374 73.168 31.3374C73.3212 31.3374 73.4596 31.3159 73.5832 31.2731C73.7084 31.2286 73.8163 31.1627 73.9069 31.0754C73.9975 30.9864 74.0675 30.876 74.117 30.7442L74.6805 30.9023C74.6212 31.0935 74.5215 31.2616 74.3814 31.4066C74.2414 31.5499 74.0684 31.6619 73.8625 31.7426C73.6565 31.8217 73.425 31.8613 73.168 31.8613Z" fill="black"/>
<path d="M75.6289 31.7823V27.9862H76.1924V28.5596H76.232C76.3012 28.3718 76.4264 28.2194 76.6076 28.1024C76.7889 27.9854 76.9932 27.9269 77.2205 27.9269C77.2634 27.9269 77.3169 27.9277 77.3812 27.9293C77.4455 27.931 77.4941 27.9335 77.527 27.9368V28.53C77.5073 28.525 77.4619 28.5175 77.391 28.5077C77.3218 28.4961 77.2485 28.4904 77.1711 28.4904C76.9866 28.4904 76.8218 28.5291 76.6768 28.6065C76.5334 28.6824 76.4197 28.7878 76.3358 28.9229C76.2534 29.0564 76.2122 29.2088 76.2122 29.3801V31.7823H75.6289Z" fill="black"/>
<path d="M78.7078 33.2058C78.6087 33.2058 78.5205 33.1976 78.4433 33.1811C78.3652 33.1663 78.3123 33.1515 78.282 33.1366L78.4307 32.6226C78.5726 32.6588 78.6977 32.672 78.806 32.6621C78.9152 32.6522 79.0117 32.6037 79.0957 32.5163C79.1814 32.4306 79.2595 32.2914 79.33 32.0987L79.4392 31.8021L78.0352 27.9861H78.6675L79.7154 31.0111H79.7549L80.8028 27.9861H81.436L79.8246 32.3359C79.7524 32.5319 79.6625 32.6943 79.555 32.8227C79.4484 32.9529 79.3233 33.0493 79.1822 33.1119C79.042 33.1745 78.8833 33.2058 78.7078 33.2058Z" fill="black"/>
<path d="M57.7422 40.1793V35.1178H58.3255V36.9862H58.3749C58.4177 36.9203 58.4771 36.8363 58.5528 36.7342C58.6303 36.6304 58.7407 36.5381 58.884 36.4573C59.029 36.3749 59.2251 36.3338 59.4722 36.3338C59.7918 36.3338 60.0736 36.4136 60.3175 36.5735C60.5614 36.7333 60.7516 36.9599 60.8884 37.2532C61.0251 37.5464 61.0935 37.8925 61.0935 38.2911C61.0935 38.6932 61.0251 39.0417 60.8884 39.3366C60.7516 39.6299 60.5621 39.8572 60.3199 40.0187C60.0778 40.1785 59.7985 40.2584 59.4822 40.2584C59.2383 40.2584 59.043 40.218 58.8964 40.1373C58.7498 40.055 58.6369 39.9618 58.5578 39.8581C58.4787 39.7526 58.4177 39.6653 58.3749 39.5961H58.3057V40.1793H57.7422ZM58.3156 38.2812C58.3156 38.568 58.3576 38.8208 58.4417 39.04C58.5256 39.2575 58.6484 39.428 58.8099 39.5516C58.9714 39.6736 59.1691 39.7345 59.4031 39.7345C59.6469 39.7345 59.8504 39.6702 60.0135 39.5417C60.1783 39.4116 60.3018 39.2369 60.3842 39.0178C60.4682 38.797 60.5102 38.5515 60.5102 38.2812C60.5102 38.0144 60.4691 37.7738 60.3867 37.5596C60.3059 37.3438 60.1832 37.1732 60.0184 37.048C59.8553 36.9212 59.6502 36.8577 59.4031 36.8577C59.1658 36.8577 58.9664 36.9179 58.8049 37.0381C58.6435 37.1568 58.5215 37.3231 58.4391 37.5373C58.3568 37.7499 58.3156 37.9978 58.3156 38.2812Z" fill="black"/>
<path d="M63.5782 40.2584C63.2124 40.2584 62.8969 40.1777 62.6316 40.0162C62.368 39.8531 62.1645 39.6257 62.0211 39.334C61.8795 39.0408 61.8086 38.6997 61.8086 38.3109C61.8086 37.9221 61.8795 37.5794 62.0211 37.2828C62.1645 36.9845 62.3639 36.7523 62.6193 36.5858C62.8763 36.4177 63.1761 36.3337 63.5188 36.3337C63.7166 36.3337 63.9118 36.3667 64.1046 36.4326C64.2974 36.4985 64.4728 36.6056 64.631 36.7538C64.7892 36.9005 64.9153 37.0949 65.0092 37.3371C65.103 37.5794 65.1501 37.8775 65.1501 38.2318V38.479H62.2238V37.9748H64.5569C64.5569 37.7606 64.5141 37.5695 64.4283 37.4014C64.3444 37.2333 64.224 37.1007 64.0675 37.0035C63.9127 36.9063 63.7298 36.8576 63.5188 36.8576C63.2866 36.8576 63.0855 36.9153 62.9158 37.0307C62.7478 37.1444 62.6184 37.2926 62.5278 37.4755C62.4372 37.6584 62.3919 37.8545 62.3919 38.0637V38.3998C62.3919 38.6865 62.4413 38.9295 62.5402 39.129C62.6407 39.3266 62.7799 39.4775 62.9578 39.5812C63.1358 39.6833 63.3426 39.7345 63.5782 39.7345C63.7314 39.7345 63.8698 39.713 63.9934 39.6702C64.1186 39.6257 64.2265 39.5598 64.3171 39.4725C64.4077 39.3835 64.4778 39.2731 64.5272 39.1413L65.0907 39.2994C65.0314 39.4906 64.9317 39.6587 64.7917 39.8037C64.6516 39.947 64.4786 40.059 64.2726 40.1397C64.0667 40.2188 63.8352 40.2584 63.5782 40.2584Z" fill="black"/>
<path d="M66.2973 41.6029C66.1984 41.6029 66.1102 41.5947 66.0328 41.5782C65.9553 41.5634 65.9018 41.5486 65.8721 41.5337L66.0204 41.0196C66.1622 41.0559 66.2874 41.0691 66.3961 41.0592C66.5048 41.0493 66.6012 41.0008 66.6852 40.9134C66.771 40.8277 66.8492 40.6885 66.92 40.4957L67.0287 40.1992L65.625 36.3832H66.2577L67.3056 39.4082H67.3451L68.393 36.3832H69.0257L67.4143 40.733C67.3419 40.929 67.252 41.0914 67.145 41.2198C67.0378 41.35 66.9135 41.4464 66.7718 41.509C66.6317 41.5716 66.4735 41.6029 66.2973 41.6029Z" fill="black"/>
<path d="M71.2006 40.2584C70.8578 40.2584 70.5572 40.1768 70.2985 40.0137C70.0415 39.8506 69.8404 39.6224 69.6955 39.3292C69.5521 39.0358 69.4805 38.6932 69.4805 38.301C69.4805 37.9056 69.5521 37.5604 69.6955 37.2655C69.8404 36.9705 70.0415 36.7415 70.2985 36.5784C70.5572 36.4153 70.8578 36.3337 71.2006 36.3337C71.5433 36.3337 71.8432 36.4153 72.1002 36.5784C72.3589 36.7415 72.5599 36.9705 72.7033 37.2655C72.8482 37.5604 72.9208 37.9056 72.9208 38.301C72.9208 38.6932 72.8482 39.0358 72.7033 39.3292C72.5599 39.6224 72.3589 39.8506 72.1002 40.0137C71.8432 40.1768 71.5433 40.2584 71.2006 40.2584ZM71.2006 39.7345C71.4609 39.7345 71.6751 39.6677 71.8432 39.5342C72.0112 39.4008 72.1356 39.2253 72.2163 39.0078C72.2971 38.7903 72.3375 38.5548 72.3375 38.301C72.3375 38.0473 72.2971 37.8108 72.2163 37.5917C72.1356 37.3725 72.0112 37.1955 71.8432 37.0603C71.6751 36.9252 71.4609 36.8576 71.2006 36.8576C70.9403 36.8576 70.7261 36.9252 70.558 37.0603C70.39 37.1955 70.2656 37.3725 70.1848 37.5917C70.1041 37.8108 70.0637 38.0473 70.0637 38.301C70.0637 38.5548 70.1041 38.7903 70.1848 39.0078C70.2656 39.2253 70.39 39.4008 70.558 39.5342C70.7261 39.6677 70.9403 39.7345 71.2006 39.7345Z" fill="black"/>
<path d="M74.3958 37.8957V40.1793H73.8125V36.3831H74.376V36.9763H74.4255C74.5144 36.7835 74.6495 36.6286 74.8308 36.5117C75.012 36.393 75.246 36.3337 75.5326 36.3337C75.7897 36.3337 76.0146 36.3865 76.2074 36.4919C76.4002 36.5957 76.5501 36.7538 76.6572 36.9664C76.7643 37.1773 76.8178 37.4443 76.8178 37.7671V40.1793H76.2346V37.8067C76.2346 37.5085 76.1571 37.2761 76.0022 37.1098C75.8474 36.9417 75.6348 36.8576 75.3646 36.8576C75.1785 36.8576 75.012 36.898 74.8654 36.9788C74.7204 37.0595 74.6059 37.1773 74.5219 37.3322C74.4378 37.4871 74.3958 37.6749 74.3958 37.8957Z" fill="black"/>
<path d="M79.3144 40.2584C78.9979 40.2584 78.7191 40.1785 78.4764 40.0187C78.2346 39.8572 78.0448 39.6299 77.9079 39.3366C77.7715 39.0417 77.7031 38.6932 77.7031 38.2911C77.7031 37.8925 77.7715 37.5464 77.9079 37.2532C78.0448 36.9599 78.2354 36.7333 78.4789 36.5735C78.7233 36.4136 79.0046 36.3338 79.3245 36.3338C79.5714 36.3338 79.7671 36.3749 79.9098 36.4573C80.0551 36.5381 80.1651 36.6304 80.2415 36.7342C80.3187 36.8363 80.3792 36.9203 80.422 36.9862H80.4707V35.1178H81.0543V40.1793H80.4909V39.5961H80.422C80.3792 39.6653 80.3179 39.7526 80.239 39.8581C80.16 39.9618 80.0467 40.055 79.9006 40.1373C79.7536 40.218 79.558 40.2584 79.3144 40.2584ZM79.3934 39.7345C79.6277 39.7345 79.825 39.6736 79.9871 39.5516C80.1483 39.428 80.2709 39.2575 80.3549 39.04C80.4388 38.8208 80.4808 38.568 80.4808 38.2812C80.4808 37.9978 80.4397 37.7499 80.3574 37.5373C80.2751 37.3231 80.1533 37.1568 79.9913 37.0381C79.83 36.9179 79.631 36.8577 79.3934 36.8577C79.1465 36.8577 78.9408 36.9212 78.7754 37.048C78.6124 37.1732 78.4899 37.3438 78.4076 37.5596C78.327 37.7738 78.2866 38.0144 78.2866 38.2812C78.2866 38.5515 78.3278 38.797 78.4101 39.0178C78.4941 39.2369 78.6175 39.4116 78.7804 39.5417C78.9458 39.6702 79.1499 39.7345 79.3934 39.7345Z" fill="black"/>
<path d="M41.4219 48.6556C41.0561 48.6556 40.7406 48.5749 40.4753 48.4134C40.2117 48.2503 40.0082 48.0229 39.8649 47.7312C39.7231 47.438 39.6523 47.0969 39.6523 46.7081C39.6523 46.3193 39.7231 45.9766 39.8649 45.68C40.0082 45.3817 40.2076 45.1495 40.4629 44.983C40.72 44.8149 41.0198 44.731 41.3626 44.731C41.5603 44.731 41.7555 44.7639 41.9483 44.8298C42.1411 44.8957 42.3166 45.0028 42.4747 45.1511C42.6329 45.2978 42.7589 45.4922 42.8528 45.7343C42.9468 45.9766 42.9937 46.2748 42.9937 46.629V46.8762H40.0675V46.372H42.4006C42.4006 46.1578 42.3577 45.9667 42.2721 45.7986C42.188 45.6305 42.0678 45.4979 41.9112 45.4007C41.7563 45.3035 41.5734 45.2549 41.3626 45.2549C41.1302 45.2549 40.9292 45.3125 40.7595 45.4279C40.5915 45.5416 40.4622 45.6898 40.3715 45.8727C40.2809 46.0556 40.2356 46.2517 40.2356 46.4609V46.7971C40.2356 47.0837 40.285 47.3268 40.3839 47.5262C40.4843 47.7239 40.6236 47.8747 40.8016 47.9785C40.9795 48.0806 41.1862 48.1317 41.4219 48.1317C41.5751 48.1317 41.7135 48.1102 41.8371 48.0674C41.9623 48.0229 42.0702 47.957 42.1608 47.8697C42.2514 47.7807 42.3214 47.6703 42.3709 47.5385L42.9344 47.6966C42.8751 47.8879 42.7754 48.0559 42.6353 48.2009C42.4953 48.3442 42.3223 48.4563 42.1164 48.5369C41.9104 48.616 41.6789 48.6556 41.4219 48.6556Z" fill="black"/>
<path d="M44.2152 44.7803L45.1246 46.3324L46.0341 44.7803H46.7064L45.4805 46.6784L46.7064 48.5764H46.0341L45.1246 47.1035L44.2152 48.5764H43.543L44.749 46.6784L43.543 44.7803H44.2152Z" fill="black"/>
<path d="M47.5391 50.0001V44.7803H48.1026V45.3834H48.1718C48.2146 45.3175 48.2739 45.2334 48.3497 45.1313C48.4271 45.0275 48.5376 44.9353 48.6809 44.8545C48.8258 44.7721 49.0219 44.731 49.2691 44.731C49.5887 44.731 49.8704 44.8108 50.1143 44.9707C50.3581 45.1305 50.5485 45.357 50.6852 45.6504C50.822 45.9436 50.8904 46.2896 50.8904 46.6883C50.8904 47.0904 50.822 47.4389 50.6852 47.7338C50.5485 48.0271 50.359 48.2544 50.1168 48.4159C49.8745 48.5757 49.5953 48.6556 49.2789 48.6556C49.0351 48.6556 48.8399 48.6152 48.6932 48.5345C48.5466 48.4521 48.4338 48.359 48.3547 48.2552C48.2756 48.1498 48.2146 48.0624 48.1718 47.9932H48.1223V50.0001H47.5391ZM48.1124 46.6784C48.1124 46.9652 48.1545 47.218 48.2385 47.4372C48.3225 47.6547 48.4453 47.8252 48.6068 47.9488C48.7682 48.0707 48.9659 48.1317 49.1999 48.1317C49.4437 48.1317 49.6472 48.0674 49.8103 47.9389C49.9751 47.8088 50.0987 47.6341 50.181 47.4149C50.2651 47.1942 50.3071 46.9486 50.3071 46.6784C50.3071 46.4116 50.2659 46.171 50.1836 45.9568C50.1028 45.741 49.98 45.5704 49.8153 45.4452C49.6522 45.3183 49.4471 45.2549 49.1999 45.2549C48.9626 45.2549 48.7633 45.3151 48.6018 45.4353C48.4403 45.554 48.3184 45.7203 48.236 45.9345C48.1536 46.147 48.1124 46.395 48.1124 46.6784Z" fill="black"/>
<path d="M53.3711 48.6556C53.0053 48.6556 52.6898 48.5749 52.4246 48.4134C52.1609 48.2503 51.9574 48.0229 51.8141 47.7312C51.6724 47.438 51.6016 47.0969 51.6016 46.7081C51.6016 46.3193 51.6724 45.9766 51.8141 45.68C51.9574 45.3817 52.1568 45.1495 52.4121 44.983C52.6692 44.8149 52.969 44.731 53.3118 44.731C53.5095 44.731 53.7047 44.7639 53.8975 44.8298C54.0903 44.8957 54.2658 45.0028 54.4239 45.1511C54.5821 45.2978 54.7082 45.4922 54.802 45.7343C54.896 45.9766 54.9429 46.2748 54.9429 46.629V46.8762H52.0167V46.372H54.3498C54.3498 46.1578 54.3069 45.9667 54.2213 45.7986C54.1372 45.6305 54.017 45.4979 53.8605 45.4007C53.7055 45.3035 53.5227 45.2549 53.3118 45.2549C53.0795 45.2549 52.8784 45.3125 52.7087 45.4279C52.5407 45.5416 52.4114 45.6898 52.3207 45.8727C52.2301 46.0556 52.1848 46.2517 52.1848 46.4609V46.7971C52.1848 47.0837 52.2342 47.3268 52.3331 47.5262C52.4335 47.7239 52.5728 47.8747 52.7508 47.9785C52.9287 48.0806 53.1355 48.1317 53.3711 48.1317C53.5243 48.1317 53.6627 48.1102 53.7863 48.0674C53.9115 48.0229 54.0194 47.957 54.11 47.8697C54.2006 47.7807 54.2707 47.6703 54.3201 47.5385L54.8837 47.6966C54.8243 47.8879 54.7246 48.0559 54.5846 48.2009C54.4445 48.3442 54.2715 48.4563 54.0656 48.5369C53.8596 48.616 53.6281 48.6556 53.3711 48.6556Z" fill="black"/>
<path d="M57.3725 48.6556C57.0166 48.6556 56.7101 48.5715 56.4531 48.4035C56.1961 48.2355 55.9983 48.004 55.8599 47.7091C55.7215 47.4141 55.6523 47.0772 55.6523 46.6982C55.6523 46.3126 55.7232 45.9725 55.8649 45.6775C56.0082 45.3809 56.2076 45.1495 56.463 44.983C56.72 44.8149 57.0199 44.731 57.3626 44.731C57.6295 44.731 57.87 44.7803 58.0842 44.8792C58.2984 44.9781 58.4739 45.1165 58.6106 45.2944C58.7474 45.4723 58.8322 45.68 58.8652 45.9172H58.282C58.2375 45.7442 58.1386 45.591 57.9854 45.4576C57.8338 45.3224 57.6295 45.2549 57.3725 45.2549C57.1451 45.2549 56.9457 45.3142 56.7744 45.4329C56.6047 45.5498 56.4721 45.7154 56.3765 45.9296C56.2825 46.1422 56.2356 46.3917 56.2356 46.6784C56.2356 46.9717 56.2817 47.2271 56.374 47.4446C56.468 47.6621 56.5997 47.831 56.7694 47.9513C56.9408 48.0715 57.1418 48.1317 57.3725 48.1317C57.5241 48.1317 57.6616 48.1053 57.7852 48.0526C57.9088 47.9999 58.0134 47.924 58.0991 47.8252C58.1847 47.7264 58.2457 47.6077 58.282 47.4693H58.8652C58.8322 47.6934 58.7507 47.8952 58.6206 48.0749C58.4921 48.2528 58.3215 48.3945 58.109 48.4999C57.8981 48.6037 57.6525 48.6556 57.3725 48.6556Z" fill="black"/>
<path d="M61.3696 44.7802V45.2746H59.4023V44.7802H61.3696ZM59.9757 43.8707H60.559V47.489C60.559 47.6537 60.5828 47.7773 60.6306 47.8597C60.68 47.9404 60.7427 47.9948 60.8184 48.0228C60.8959 48.0491 60.9775 48.0623 61.0631 48.0623C61.1274 48.0623 61.1801 48.059 61.2213 48.0525C61.2625 48.0443 61.2955 48.0376 61.3202 48.0327L61.4388 48.5567C61.3993 48.5714 61.3441 48.5863 61.2732 48.6012C61.2023 48.6176 61.1126 48.6258 61.0038 48.6258C60.8391 48.6258 60.6776 48.5904 60.5194 48.5195C60.3629 48.4487 60.2327 48.3408 60.1289 48.1958C60.0268 48.0508 59.9757 47.8679 59.9757 47.6472V43.8707Z" fill="black"/>
<path d="M63.3653 48.6655C63.1248 48.6655 62.9065 48.6202 62.7104 48.5296C62.5144 48.4373 62.3587 48.3047 62.2433 48.1317C62.128 47.957 62.0703 47.7461 62.0703 47.499C62.0703 47.2815 62.1131 47.1052 62.1988 46.97C62.2845 46.8333 62.399 46.7262 62.5424 46.6488C62.6857 46.5714 62.8439 46.5137 63.0168 46.4758C63.1915 46.4362 63.367 46.4049 63.5433 46.3819C63.774 46.3522 63.961 46.3299 64.1043 46.3152C64.2493 46.2987 64.3548 46.2715 64.4207 46.2336C64.4882 46.1957 64.522 46.1297 64.522 46.0359V46.0161C64.522 45.7723 64.4553 45.5828 64.3218 45.4477C64.19 45.3125 63.9898 45.245 63.7213 45.245C63.4428 45.245 63.2245 45.306 63.0663 45.4279C62.9081 45.5498 62.7969 45.68 62.7327 45.8184L62.1791 45.6206C62.2779 45.39 62.4097 45.2104 62.5745 45.0819C62.7409 44.9517 62.9221 44.8611 63.1182 44.8101C63.3159 44.7573 63.5103 44.731 63.7015 44.731C63.8234 44.731 63.9634 44.7457 64.1216 44.7755C64.2814 44.8034 64.4355 44.862 64.5838 44.9509C64.7337 45.0399 64.8581 45.1742 64.957 45.3538C65.0558 45.5333 65.1053 45.7739 65.1053 46.0754V48.5765H64.522V48.0624H64.4924C64.4528 48.1448 64.3869 48.233 64.2946 48.3269C64.2023 48.4208 64.0796 48.5008 63.9264 48.5667C63.7732 48.6325 63.5862 48.6655 63.3653 48.6655ZM63.4543 48.1415C63.685 48.1415 63.8794 48.0963 64.0376 48.0056C64.1974 47.915 64.3177 47.798 64.3984 47.6547C64.4808 47.5113 64.522 47.3606 64.522 47.2024V46.6686C64.4972 46.6982 64.4429 46.7254 64.3589 46.7501C64.2765 46.7732 64.1809 46.7938 64.0722 46.8119C63.9651 46.8284 63.8605 46.8432 63.7583 46.8563C63.6578 46.8679 63.5763 46.8778 63.5136 46.8861C63.362 46.9058 63.2204 46.938 63.0885 46.9825C62.9584 47.0253 62.8529 47.0904 62.7722 47.1777C62.6931 47.2634 62.6536 47.3803 62.6536 47.5286C62.6536 47.7312 62.7286 47.8845 62.8785 47.9883C63.03 48.0905 63.222 48.1415 63.4543 48.1415Z" fill="black"/>
<path d="M67.8188 44.7802V45.2746H65.8516V44.7802H67.8188ZM66.425 43.8707H67.0083V47.489C67.0083 47.6537 67.0321 47.7773 67.0799 47.8597C67.1294 47.9404 67.1919 47.9948 67.2677 48.0228C67.3452 48.0491 67.4267 48.0623 67.5124 48.0623C67.5767 48.0623 67.6294 48.059 67.6705 48.0525C67.7118 48.0443 67.7447 48.0376 67.7695 48.0327L67.888 48.5567C67.8486 48.5714 67.7933 48.5863 67.7225 48.6012C67.6517 48.6176 67.5618 48.6258 67.4531 48.6258C67.2883 48.6258 67.1268 48.5904 66.9687 48.5195C66.8122 48.4487 66.682 48.3408 66.5782 48.1958C66.4761 48.0508 66.425 47.8679 66.425 47.6472V43.8707Z" fill="black"/>
<path d="M68.6968 48.5764V44.7803H69.28V48.5764H68.6968ZM68.9934 44.1476C68.8797 44.1476 68.7816 44.1089 68.6992 44.0314C68.6185 43.954 68.5781 43.8609 68.5781 43.7522C68.5781 43.6435 68.6185 43.5503 68.6992 43.4729C68.7816 43.3955 68.8797 43.3567 68.9934 43.3567C69.1071 43.3567 69.2042 43.3955 69.285 43.4729C69.3674 43.5503 69.4085 43.6435 69.4085 43.7522C69.4085 43.8609 69.3674 43.954 69.285 44.0314C69.2042 44.1089 69.1071 44.1476 68.9934 44.1476Z" fill="black"/>
<path d="M71.8881 48.6556C71.5453 48.6556 71.2446 48.5741 70.986 48.4109C70.729 48.2478 70.528 48.0196 70.3829 47.7264C70.2396 47.4331 70.168 47.0904 70.168 46.6982C70.168 46.3028 70.2396 45.9576 70.3829 45.6627C70.528 45.3677 70.729 45.1387 70.986 44.9756C71.2446 44.8125 71.5453 44.731 71.8881 44.731C72.2308 44.731 72.5307 44.8125 72.7877 44.9756C73.0463 45.1387 73.2474 45.3677 73.3907 45.6627C73.5357 45.9576 73.6082 46.3028 73.6082 46.6982C73.6082 47.0904 73.5357 47.4331 73.3907 47.7264C73.2474 48.0196 73.0463 48.2478 72.7877 48.4109C72.5307 48.5741 72.2308 48.6556 71.8881 48.6556ZM71.8881 48.1317C72.1484 48.1317 72.3626 48.0649 72.5307 47.9314C72.6987 47.798 72.8231 47.6225 72.9038 47.405C72.9846 47.1875 73.0249 46.952 73.0249 46.6982C73.0249 46.4445 72.9846 46.208 72.9038 45.9889C72.8231 45.7698 72.6987 45.5927 72.5307 45.4576C72.3626 45.3224 72.1484 45.2549 71.8881 45.2549C71.6277 45.2549 71.4136 45.3224 71.2455 45.4576C71.0775 45.5927 70.953 45.7698 70.8723 45.9889C70.7915 46.208 70.7512 46.4445 70.7512 46.6982C70.7512 46.952 70.7915 47.1875 70.8723 47.405C70.953 47.6225 71.0775 47.798 71.2455 47.9314C71.4136 48.0649 71.6277 48.1317 71.8881 48.1317Z" fill="black"/>
<path d="M75.0833 46.2929V48.5765H74.5V44.7803H75.0635V45.3735H75.1129C75.2019 45.1807 75.337 45.0259 75.5182 44.9089C75.6995 44.7902 75.9335 44.731 76.2201 44.731C76.4772 44.731 76.7021 44.7837 76.8949 44.8891C77.0877 44.9929 77.2375 45.1511 77.3447 45.3636C77.4518 45.5745 77.5053 45.8415 77.5053 46.1643V48.5765H76.9221V46.2039C76.9221 45.9057 76.8446 45.6734 76.6897 45.507C76.5349 45.3389 76.3223 45.2549 76.0521 45.2549C75.8659 45.2549 75.6995 45.2952 75.5528 45.376C75.4079 45.4567 75.2934 45.5745 75.2093 45.7294C75.1253 45.8843 75.0833 46.0721 75.0833 46.2929Z" fill="black"/>
<path d="M81.2599 45.6305L80.7359 45.7788C80.7023 45.6915 80.6544 45.6067 80.5898 45.5243C80.5276 45.4403 80.4412 45.3711 80.3328 45.3167C80.2237 45.2623 80.0851 45.2351 79.9155 45.2351C79.6829 45.2351 79.4889 45.2887 79.3344 45.3958C79.1808 45.5012 79.1043 45.6355 79.1043 45.7986C79.1043 45.9436 79.1572 46.0581 79.263 46.1422C79.368 46.2261 79.5326 46.2962 79.7568 46.3522L80.3202 46.4907C80.6595 46.573 80.9131 46.6991 81.0793 46.8688C81.2456 47.0368 81.3287 47.2535 81.3287 47.5187C81.3287 47.7362 81.2666 47.9307 81.1406 48.102C81.0172 48.2734 80.8442 48.4085 80.6217 48.5073C80.3992 48.6061 80.1405 48.6556 79.8458 48.6556C79.4587 48.6556 79.1379 48.5715 78.8843 48.4035C78.6307 48.2355 78.4704 47.99 78.4023 47.667L78.9565 47.5286C79.0086 47.7329 79.1085 47.8862 79.2555 47.9883C79.4033 48.0905 79.5973 48.1415 79.8357 48.1415C80.1078 48.1415 80.3236 48.0838 80.484 47.9685C80.6452 47.8516 80.7258 47.7115 80.7258 47.5484C80.7258 47.4166 80.6796 47.3062 80.5873 47.2173C80.4949 47.1266 80.353 47.0591 80.1624 47.0146L79.5292 46.8663C79.1816 46.7839 78.9263 46.6562 78.7634 46.4832C78.6022 46.3085 78.5216 46.0903 78.5216 45.8283C78.5216 45.6141 78.5812 45.4246 78.7013 45.2598C78.8239 45.0951 78.9893 44.9657 79.1984 44.8718C79.4092 44.7779 79.6485 44.731 79.9155 44.731C80.2909 44.731 80.5856 44.8133 80.7997 44.9781C81.0155 45.1428 81.1692 45.3603 81.2599 45.6305Z" fill="black"/>
</g>
<defs>
<clipPath id="clip0_413_3302">
<rect width="82.0312" height="50" fill="white"/>
</clipPath>
</defs>
</svg>
