<svg width="24" height="24" viewBox="0 0 24 24" fill="none" xmlns="http://www.w3.org/2000/svg">
<path d="M12.0028 13.4299C12.4125 13.4299 12.8182 13.3492 13.1968 13.1924C13.5753 13.0357 13.9193 12.8058 14.209 12.5161C14.4987 12.2264 14.7285 11.8824 14.8853 11.5039C15.0421 11.1254 15.1228 10.7197 15.1228 10.3099C15.1228 9.90022 15.0421 9.49451 14.8853 9.11597C14.7285 8.73743 14.4987 8.39349 14.209 8.10377C13.9193 7.81405 13.5753 7.58423 13.1968 7.42744C12.8182 7.27064 12.4125 7.18994 12.0028 7.18994C11.1753 7.18994 10.3818 7.51865 9.79664 8.10377C9.21153 8.68888 8.88281 9.48247 8.88281 10.3099C8.88281 11.1374 9.21153 11.931 9.79664 12.5161C10.3818 13.1012 11.1753 13.4299 12.0028 13.4299Z" stroke="#0047BB" stroke-width="1.5"/>
<path d="M3.61776 8.49C5.58776 -0.169998 18.4178 -0.159997 20.3778 8.5C21.5278 13.58 18.3678 17.88 15.5978 20.54C14.6298 21.4735 13.3375 21.9952 11.9928 21.9952C10.648 21.9952 9.35568 21.4735 8.38776 20.54C5.62776 17.88 2.46776 13.57 3.61776 8.49Z" stroke="#0047BB" stroke-width="1.5"/>
</svg>
