<svg width="101" height="101" viewBox="0 0 101 101" fill="none" xmlns="http://www.w3.org/2000/svg">
<path d="M0.5 0.5H80.5C91.5457 0.5 100.5 9.45431 100.5 20.5V100.5H20.5C9.4543 100.5 0.5 91.5457 0.5 80.5V0.5Z" fill="url(#paint0_linear_503_785)"/>
<path d="M44.1 68.5C43.2 68.5 42.3417 68.3083 41.525 67.925C40.7083 67.5417 40.0167 67 39.45 66.3L26.5 50.35L27.8 49.1C28.4333 48.4667 29.1833 48.1 30.05 48C30.9167 47.9 31.7 48.1 32.4 48.6L38.2 52.65V32.5C38.2 31.9333 38.3917 31.4583 38.775 31.075C39.1583 30.6917 39.6333 30.5 40.2 30.5C40.7667 30.5 41.2417 30.6917 41.625 31.075C42.0083 31.4583 42.2 31.9333 42.2 32.5V60.35L36.65 56.45L42.55 63.75C42.75 63.9833 42.9833 64.1667 43.25 64.3C43.5167 64.4333 43.8 64.5 44.1 64.5H58.2C59.3 64.5 60.2417 64.1083 61.025 63.325C61.8083 62.5417 62.2 61.6 62.2 60.5V46.5C62.2 45.9333 62.3917 45.4583 62.775 45.075C63.1583 44.6917 63.6333 44.5 64.2 44.5C64.7667 44.5 65.2417 44.6917 65.625 45.075C66.0083 45.4583 66.2 45.9333 66.2 46.5V60.5C66.2 62.7 65.4167 64.5833 63.85 66.15C62.2833 67.7167 60.4 68.5 58.2 68.5H44.1ZM46.2 52.5V40.5C46.2 39.9333 46.3917 39.4583 46.775 39.075C47.1583 38.6917 47.6333 38.5 48.2 38.5C48.7667 38.5 49.2417 38.6917 49.625 39.075C50.0083 39.4583 50.2 39.9333 50.2 40.5V52.5H46.2ZM54.2 52.5V42.5C54.2 41.9333 54.3917 41.4583 54.775 41.075C55.1583 40.6917 55.6333 40.5 56.2 40.5C56.7667 40.5 57.2417 40.6917 57.625 41.075C58.0083 41.4583 58.2 41.9333 58.2 42.5V52.5H54.2Z" fill="white"/>
<defs>
<linearGradient id="paint0_linear_503_785" x1="-11.5" y1="-16.5" x2="128.5" y2="125.5" gradientUnits="userSpaceOnUse">
<stop stop-color="#8400D9"/>
<stop offset="1" stop-color="#DCABFC"/>
</linearGradient>
</defs>
</svg>
