<svg width="101" height="101" viewBox="0 0 101 101" fill="none" xmlns="http://www.w3.org/2000/svg">
<path d="M0.5 0.5H80.5C91.5457 0.5 100.5 9.45431 100.5 20.5V100.5H20.5C9.4543 100.5 0.5 91.5457 0.5 80.5V0.5Z" fill="url(#paint0_linear_503_801)"/>
<path d="M48.2 72.5C47.2 72.5 46.2667 72.275 45.4 71.825C44.5333 71.375 43.8167 70.7333 43.25 69.9L30.5 51.25L31.7 50.1C32.3333 49.4667 33.0833 49.1 33.95 49C34.8167 48.9 35.6 49.1 36.3 49.6L42.1 53.65V34.5C42.1 33.9333 42.2917 33.4583 42.675 33.075C43.0583 32.6917 43.5333 32.5 44.1 32.5C44.6667 32.5 45.1417 32.6917 45.525 33.075C45.9083 33.4583 46.1 33.9333 46.1 34.5V61.35L38.7 56.15L46.55 67.6C46.7167 67.8667 46.95 68.0833 47.25 68.25C47.55 68.4167 47.8667 68.5 48.2 68.5H62.1C63.2 68.5 64.1417 68.1083 64.925 67.325C65.7083 66.5417 66.1 65.6 66.1 64.5V36.5C66.1 35.9333 66.2917 35.4583 66.675 35.075C67.0583 34.6917 67.5333 34.5 68.1 34.5C68.6667 34.5 69.1417 34.6917 69.525 35.075C69.9083 35.4583 70.1 35.9333 70.1 36.5V64.5C70.1 66.7 69.3167 68.5833 67.75 70.15C66.1833 71.7167 64.3 72.5 62.1 72.5H48.2ZM50.1 50.5V30.5C50.1 29.9333 50.2917 29.4583 50.675 29.075C51.0583 28.6917 51.5333 28.5 52.1 28.5C52.6667 28.5 53.1417 28.6917 53.525 29.075C53.9083 29.4583 54.1 29.9333 54.1 30.5V50.5H50.1ZM58.1 50.5V32.5C58.1 31.9333 58.2917 31.4583 58.675 31.075C59.0583 30.6917 59.5333 30.5 60.1 30.5C60.6667 30.5 61.1417 30.6917 61.525 31.075C61.9083 31.4583 62.1 31.9333 62.1 32.5V50.5H58.1Z" fill="white"/>
<defs>
<linearGradient id="paint0_linear_503_801" x1="-11.5" y1="-16.5" x2="128.5" y2="125.5" gradientUnits="userSpaceOnUse">
<stop stop-color="#A00037"/>
<stop offset="1" stop-color="#FF89B1"/>
</linearGradient>
</defs>
</svg>
