<svg width="101" height="101" viewBox="0 0 101 101" fill="none" xmlns="http://www.w3.org/2000/svg">
<path d="M0.5 0.5H80.5C91.5457 0.5 100.5 9.45431 100.5 20.5V100.5H20.5C9.4543 100.5 0.5 91.5457 0.5 80.5V0.5Z" fill="url(#paint0_linear_503_793)"/>
<path d="M50.27 66.5C50.4033 66.5 50.5367 66.4667 50.67 66.4C50.8033 66.3333 50.9033 66.2667 50.97 66.2L67.37 49.8C67.77 49.4 68.0617 48.95 68.245 48.45C68.4283 47.95 68.52 47.45 68.52 46.95C68.52 46.4167 68.4283 45.9083 68.245 45.425C68.0617 44.9417 67.77 44.5167 67.37 44.15L58.87 35.65C58.5033 35.25 58.0783 34.9583 57.595 34.775C57.1117 34.5917 56.6033 34.5 56.07 34.5C55.57 34.5 55.07 34.5917 54.57 34.775C54.07 34.9583 53.62 35.25 53.22 35.65L52.67 36.2L56.37 39.95C56.87 40.4167 57.2367 40.95 57.47 41.55C57.7033 42.15 57.82 42.7833 57.82 43.45C57.82 44.85 57.345 46.025 56.395 46.975C55.445 47.925 54.27 48.4 52.87 48.4C52.2033 48.4 51.5617 48.2833 50.945 48.05C50.3283 47.8167 49.7867 47.4667 49.32 47L45.57 43.3L36.82 52.05C36.72 52.15 36.645 52.2583 36.595 52.375C36.545 52.4917 36.52 52.6167 36.52 52.75C36.52 53.0167 36.62 53.2583 36.82 53.475C37.02 53.6917 37.2533 53.8 37.52 53.8C37.6533 53.8 37.7867 53.7667 37.92 53.7C38.0533 53.6333 38.1533 53.5667 38.22 53.5L45.02 46.7L47.82 49.5L41.07 56.3C40.97 56.4 40.895 56.5083 40.845 56.625C40.795 56.7417 40.77 56.8667 40.77 57C40.77 57.2667 40.87 57.5 41.07 57.7C41.27 57.9 41.5033 58 41.77 58C41.9033 58 42.0367 57.9667 42.17 57.9C42.3033 57.8333 42.4033 57.7667 42.47 57.7L49.27 50.95L52.07 53.75L45.32 60.55C45.22 60.6167 45.145 60.7167 45.095 60.85C45.045 60.9833 45.02 61.1167 45.02 61.25C45.02 61.5167 45.12 61.75 45.32 61.95C45.52 62.15 45.7533 62.25 46.02 62.25C46.1533 62.25 46.2783 62.225 46.395 62.175C46.5117 62.125 46.62 62.05 46.72 61.95L53.52 55.2L56.32 58L49.52 64.8C49.42 64.9 49.345 65.0083 49.295 65.125C49.245 65.2417 49.22 65.3667 49.22 65.5C49.22 65.7667 49.3283 66 49.545 66.2C49.7617 66.4 50.0033 66.5 50.27 66.5ZM50.22 70.5C48.9867 70.5 47.895 70.0917 46.945 69.275C45.995 68.4583 45.4367 67.4333 45.27 66.2C44.1367 66.0333 43.1867 65.5667 42.42 64.8C41.6533 64.0333 41.1867 63.0833 41.02 61.95C39.8867 61.7833 38.945 61.3083 38.195 60.525C37.445 59.7417 36.9867 58.8 36.82 57.7C35.5533 57.5333 34.52 56.9833 33.72 56.05C32.92 55.1167 32.52 54.0167 32.52 52.75C32.52 52.0833 32.645 51.4417 32.895 50.825C33.145 50.2083 33.5033 49.6667 33.97 49.2L45.57 37.65L52.12 44.2C52.1867 44.3 52.2867 44.375 52.42 44.425C52.5533 44.475 52.6867 44.5 52.82 44.5C53.12 44.5 53.37 44.4083 53.57 44.225C53.77 44.0417 53.87 43.8 53.87 43.5C53.87 43.3667 53.845 43.2333 53.795 43.1C53.745 42.9667 53.67 42.8667 53.57 42.8L46.42 35.65C46.0533 35.25 45.6283 34.9583 45.145 34.775C44.6617 34.5917 44.1533 34.5 43.62 34.5C43.12 34.5 42.62 34.5917 42.12 34.775C41.62 34.9583 41.17 35.25 40.77 35.65L33.72 42.75C33.42 43.05 33.17 43.4 32.97 43.8C32.77 44.2 32.6367 44.6 32.57 45C32.5033 45.4 32.5033 45.8083 32.57 46.225C32.6367 46.6417 32.77 47.0333 32.97 47.4L30.07 50.3C29.5033 49.5333 29.0867 48.6917 28.82 47.775C28.5533 46.8583 28.4533 45.9333 28.52 45C28.5867 44.0667 28.82 43.1583 29.22 42.275C29.62 41.3917 30.17 40.6 30.87 39.9L37.92 32.85C38.72 32.0833 39.6117 31.5 40.595 31.1C41.5783 30.7 42.5867 30.5 43.62 30.5C44.6533 30.5 45.6617 30.7 46.645 31.1C47.6283 31.5 48.5033 32.0833 49.27 32.85L49.82 33.4L50.37 32.85C51.17 32.0833 52.0617 31.5 53.045 31.1C54.0283 30.7 55.0367 30.5 56.07 30.5C57.1033 30.5 58.1117 30.7 59.095 31.1C60.0783 31.5 60.9533 32.0833 61.72 32.85L70.17 41.3C70.9367 42.0667 71.52 42.95 71.92 43.95C72.32 44.95 72.52 45.9667 72.52 47C72.52 48.0333 72.32 49.0417 71.92 50.025C71.52 51.0083 70.9367 51.8833 70.17 52.65L53.77 69C53.3033 69.4667 52.7617 69.8333 52.145 70.1C51.5283 70.3667 50.8867 70.5 50.22 70.5Z" fill="white"/>
<defs>
<linearGradient id="paint0_linear_503_793" x1="107.5" y1="106.5" x2="-5.5" y2="-5.99999" gradientUnits="userSpaceOnUse">
<stop stop-color="#FFC084"/>
<stop offset="1" stop-color="#E99240"/>
</linearGradient>
</defs>
</svg>
